<?xml version="1.0" encoding="utf-8"?>
<!-- Generator: Adobe Illustrator 27.5.0, SVG Export Plug-In . SVG Version: 6.00 Build 0)  -->
<svg version="1.1" xmlns="http://www.w3.org/2000/svg" xmlns:xlink="http://www.w3.org/1999/xlink" x="0px" y="0px"
	 viewBox="0 0 500 500" style="enable-background:new 0 0 500 500;" xml:space="preserve">
<g id="Background_Complete">
	<g>
		<g>
			<path style="fill:#E0E0E0;" d="M305.257,141.699c0.144,0.009,0.244,0.572,0.225,1.257c-0.02,0.685-0.152,1.242-0.296,1.242
				c-0.144,0.001-0.244-0.562-0.225-1.257C304.981,142.246,305.114,141.69,305.257,141.699z"/>
		</g>
		<g>
			<path style="fill:#E0E0E0;" d="M307.166,131.993c0.137,0.051-0.139,1.124-0.493,2.435c-0.357,1.31-0.667,2.375-0.811,2.349
				c-0.139-0.025-0.056-1.15,0.308-2.485C306.531,132.955,307.034,131.943,307.166,131.993z"/>
		</g>
		<g>
			<path style="fill:#E0E0E0;" d="M312.033,123.4c0.112,0.094-0.51,1.011-1.276,2.13c-0.769,1.117-1.4,2.027-1.529,1.956
				c-0.124-0.067,0.314-1.109,1.099-2.251C311.111,124.092,311.926,123.309,312.033,123.4z"/>
		</g>
		<g>
			<path style="fill:#E0E0E0;" d="M319.425,116.832c0.079,0.123-0.786,0.818-1.866,1.641c-1.083,0.821-1.979,1.472-2.077,1.364
				c-0.095-0.105,0.66-0.943,1.762-1.779C318.343,117.221,319.349,116.713,319.425,116.832z"/>
		</g>
		<g>
			<path style="fill:#E0E0E0;" d="M328.256,112.344c0.051,0.134-0.917,0.691-2.162,1.243c-1.246,0.552-2.308,0.896-2.374,0.768
				c-0.066-0.128,0.902-0.685,2.162-1.244C327.142,112.553,328.205,112.209,328.256,112.344z"/>
		</g>
		<g>
			<path style="fill:#E0E0E0;" d="M337.742,109.442c0.032,0.14-1.01,0.541-2.328,0.894c-1.318,0.354-2.421,0.529-2.463,0.391
				c-0.042-0.137,1-0.538,2.328-0.894C336.607,109.477,337.71,109.302,337.742,109.442z"/>
		</g>
		<g>
			<path style="fill:#E0E0E0;" d="M347.49,107.602c0.021,0.142-1.055,0.441-2.403,0.666c-1.349,0.226-2.463,0.294-2.49,0.153
				c-0.027-0.141,1.049-0.44,2.404-0.666C346.354,107.528,347.469,107.46,347.49,107.602z"/>
		</g>
		<g>
			<path style="fill:#E0E0E0;" d="M357.358,106.619c0.002,0.144-1.099,0.33-2.459,0.416c-1.36,0.086-2.475,0.039-2.492-0.104
				c-0.016-0.143,1.084-0.329,2.459-0.416C356.24,106.428,357.356,106.475,357.358,106.619z"/>
		</g>
		<g>
			<path style="fill:#E0E0E0;" d="M367.247,107.274c-0.023,0.142-1.14,0.137-2.494-0.012c-1.355-0.149-2.445-0.386-2.437-0.529
				c0.008-0.144,1.125-0.138,2.494,0.012C366.179,106.895,367.27,107.132,367.247,107.274z"/>
		</g>
		<g>
			<path style="fill:#E0E0E0;" d="M376.869,109.649c-0.048,0.136-1.146-0.067-2.452-0.452c-1.307-0.386-2.338-0.812-2.305-0.952
				c0.033-0.14,1.131,0.062,2.453,0.452C375.885,109.087,376.917,109.513,376.869,109.649z"/>
		</g>
		<g>
			<path style="fill:#E0E0E0;" d="M385.872,113.775c-0.074,0.124-1.112-0.284-2.319-0.91c-1.207-0.627-2.138-1.241-2.079-1.373
				c0.059-0.131,1.097,0.276,2.319,0.911C385.015,113.037,385.946,113.652,385.872,113.775z"/>
		</g>
		<g>
			<path style="fill:#E0E0E0;" d="M393.841,119.656c-0.1,0.106-0.984-0.564-2.035-1.429c-1.049-0.867-1.876-1.608-1.79-1.726
				c0.083-0.115,1.058,0.445,2.121,1.324C393.203,118.701,393.939,119.552,393.841,119.656z"/>
		</g>
		<g>
			<path style="fill:#E0E0E0;" d="M400.27,127.183c-0.122,0.08-0.825-0.779-1.647-1.863c-0.82-1.086-1.456-1.995-1.346-2.091
				c0.107-0.093,0.929,0.675,1.761,1.777C399.872,126.106,400.388,127.106,400.27,127.183z"/>
		</g>
		<g>
			<path style="fill:#E0E0E0;" d="M404.816,135.978c-0.137,0.051-0.629-0.944-1.186-2.185c-0.555-1.243-0.967-2.273-0.839-2.341
				c0.125-0.067,0.751,0.868,1.314,2.128C404.67,134.839,404.95,135.929,404.816,135.978z"/>
		</g>
		<g>
			<path style="fill:#E0E0E0;" d="M407.251,145.574c-0.145,0.017-0.393-1.064-0.651-2.399c-0.256-1.336-0.426-2.433-0.285-2.47
				c0.137-0.037,0.536,1.015,0.796,2.371C407.373,144.431,407.392,145.557,407.251,145.574z"/>
		</g>
		<g>
			<path style="fill:#E0E0E0;" d="M407.287,155.471c-0.145-0.02-0.108-1.128-0.027-2.485c0.083-1.357,0.182-2.462,0.328-2.464
				c0.142-0.003,0.276,1.116,0.191,2.495C407.698,154.396,407.427,155.491,407.287,155.471z"/>
		</g>
		<g>
			<path style="fill:#E0E0E0;" d="M404.652,165.002c-0.13-0.061,0.168-1.132,0.669-2.392c0.436-1.285,0.849-2.315,0.996-2.276
				c0.131,0.033-0.061,1.142-0.505,2.45C405.302,164.07,404.783,165.063,404.652,165.002z"/>
		</g>
		<g>
			<path style="fill:#E0E0E0;" d="M399.256,173.283c-0.108-0.099,0.554-0.987,1.38-2.065c0.828-1.076,1.517-1.944,1.64-1.866
				c0.12,0.075-0.383,1.086-1.227,2.183C400.207,172.633,399.359,173.379,399.256,173.283z"/>
		</g>
		<g>
			<path style="fill:#E0E0E0;" d="M391.513,179.411c-0.067-0.13,0.858-0.737,1.987-1.487c1.132-0.746,2.057-1.355,2.15-1.241
				c0.09,0.108-0.705,0.912-1.863,1.676C392.632,179.125,391.577,179.537,391.513,179.411z"/>
		</g>
		<g>
			<path style="fill:#E0E0E0;" d="M382.049,182.123c-0.006-0.147,1.088-0.302,2.419-0.535c1.333-0.227,2.417-0.443,2.46-0.302
				c0.043,0.133-1,0.581-2.372,0.815C383.187,182.34,382.053,182.264,382.049,182.123z"/>
		</g>
		<g>
			<path style="fill:#E0E0E0;" d="M372.478,180.005c0.07-0.13,1.09,0.297,2.356,0.766c1.264,0.475,2.315,0.81,2.285,0.954
				c-0.026,0.137-1.161,0.024-2.467-0.466C373.346,180.775,372.41,180.127,372.478,180.005z"/>
		</g>
		<g>
			<path style="fill:#E0E0E0;" d="M365.064,173.54c0.122-0.084,0.837,0.758,1.748,1.757c0.908,1.003,1.675,1.798,1.579,1.911
				c-0.089,0.108-1.03-0.529-1.965-1.561C365.489,174.618,364.948,173.617,365.064,173.54z"/>
		</g>
		<g>
			<path style="fill:#E0E0E0;" d="M361.766,164.323c0.148-0.003,0.277,1.091,0.551,2.409c0.267,1.32,0.564,2.383,0.425,2.436
				c-0.128,0.053-0.657-0.96-0.935-2.332C361.523,165.465,361.627,164.322,361.766,164.323z"/>
		</g>
		<g>
			<path style="fill:#E0E0E0;" d="M364.722,155.047c0.119,0.09-0.46,1.029-1.075,2.225c-0.621,1.193-1.049,2.209-1.192,2.164
				c-0.133-0.038,0.083-1.162,0.729-2.404C363.825,155.789,364.614,154.961,364.722,155.047z"/>
		</g>
		<g>
			<path style="fill:#E0E0E0;" d="M372.373,148.875c0.064,0.133-0.883,0.708-2.031,1.423c-1.151,0.712-2.075,1.316-2.168,1.202
				c-0.09-0.108,0.711-0.913,1.893-1.644C371.245,149.122,372.313,148.748,372.373,148.875z"/>
		</g>
		<g>
			<path style="fill:#E0E0E0;" d="M381.832,146.006c0.02,0.145-1.057,0.409-2.384,0.702c-1.327,0.29-2.414,0.507-2.458,0.368
				c-0.043-0.135,0.994-0.58,2.345-0.876C380.686,145.901,381.813,145.866,381.832,146.006z"/>
		</g>
		<g>
			<path style="fill:#E0E0E0;" d="M391.734,145.794c-0.014,0.143-1.128,0.22-2.488,0.171c-1.36-0.049-2.465-0.206-2.469-0.349
				c-0.004-0.144,1.11-0.221,2.488-0.171C390.642,145.494,391.748,145.651,391.734,145.794z"/>
		</g>
		<g>
			<path style="fill:#E0E0E0;" d="M401.442,147.751c-0.046,0.138-1.13-0.099-2.447-0.44c-1.317-0.343-2.379-0.665-2.352-0.808
				c0.026-0.139,1.147-0.044,2.483,0.304C400.461,147.153,401.487,147.617,401.442,147.751z"/>
		</g>
		<g>
			<path style="fill:#E0E0E0;" d="M410.423,151.902c-0.079,0.123-1.069-0.374-2.266-1.017c-1.195-0.646-2.154-1.203-2.094-1.336
				c0.057-0.129,1.127,0.221,2.341,0.878C409.62,151.08,410.5,151.783,410.423,151.902z"/>
		</g>
		<g>
			<path style="fill:#E0E0E0;" d="M418.001,158.254c-0.108,0.095-0.974-0.607-1.934-1.567c-0.935-0.987-1.734-1.754-1.633-1.876
				c0.081-0.101,1.042,0.498,1.995,1.502C417.405,157.29,418.109,158.159,418.001,158.254z"/>
		</g>
		<g>
			<path style="fill:#E0E0E0;" d="M423.536,166.444c-0.131,0.064-0.716-0.878-1.399-2.051c-0.681-1.175-1.21-2.148-1.09-2.231
				c0.116-0.081,0.848,0.775,1.541,1.969C423.282,165.324,423.664,166.383,423.536,166.444z"/>
		</g>
		<g>
			<path style="fill:#E0E0E0;" d="M426.847,175.768c-0.142,0.032-0.495-1.021-0.875-2.327c-0.378-1.307-0.645-2.384-0.508-2.434
				c0.133-0.049,0.625,0.963,1.008,2.289C426.858,174.621,426.986,175.738,426.847,175.768z"/>
		</g>
		<g>
			<path style="fill:#E0E0E0;" d="M428.093,185.597c-0.144,0.003-0.345-1.095-0.45-2.452c-0.104-1.358-0.073-2.474,0.07-2.493
				c0.142-0.019,0.344,1.079,0.45,2.453C428.268,184.477,428.237,185.594,428.093,185.597z"/>
		</g>
		<g>
			<path style="fill:#E0E0E0;" d="M427.51,195.491c-0.142-0.022-0.145-1.139-0.005-2.494c0.139-1.356,0.369-2.448,0.513-2.441
				c0.144,0.008,0.146,1.124,0.005,2.494C427.882,194.42,427.652,195.512,427.51,195.491z"/>
		</g>
		<g>
			<path style="fill:#E0E0E0;" d="M425.268,205.146c-0.137-0.045,0.047-1.147,0.41-2.46c0.363-1.314,0.772-2.353,0.912-2.321
				c0.14,0.031-0.043,1.133-0.41,2.46C425.813,204.152,425.404,205.191,425.268,205.146z"/>
		</g>
		<g>
			<path style="fill:#E0E0E0;" d="M421.454,214.294c-0.128-0.066,0.249-1.116,0.842-2.344c0.594-1.228,1.11-2.21,1.254-2.151
				c0.122,0.049-0.182,1.133-0.782,2.372C422.17,213.409,421.582,214.359,421.454,214.294z"/>
		</g>
		<g>
			<path style="fill:#E0E0E0;" d="M416.411,222.83c-0.119-0.081,0.376-1.082,1.105-2.235c0.73-1.154,1.422-2.029,1.546-1.957
				c0.124,0.073-0.371,1.073-1.106,2.235C417.222,222.035,416.53,222.911,416.411,222.83z"/>
		</g>
		<g>
			<path style="fill:#E0E0E0;" d="M410.462,230.764c-0.111-0.092,0.485-1.036,1.331-2.108c0.846-1.073,1.625-1.872,1.74-1.786
				c0.115,0.086-0.48,1.03-1.331,2.109C411.352,230.057,410.573,230.857,410.462,230.764z"/>
		</g>
		<g>
			<path style="fill:#E0E0E0;" d="M403.857,238.164c-0.104-0.1,0.565-0.994,1.494-1.996c0.929-1.003,1.769-1.739,1.876-1.643
				c0.107,0.095-0.561,0.989-1.494,1.996C404.801,237.528,403.961,238.264,403.857,238.164z"/>
		</g>
		<g>
			<path style="fill:#E0E0E0;" d="M396.807,245.145c-0.099-0.105,0.619-0.96,1.604-1.911c0.984-0.951,1.864-1.638,1.966-1.536
				c0.101,0.102-0.616,0.957-1.604,1.911C397.786,244.562,396.906,245.25,396.807,245.145z"/>
		</g>
		<g>
			<path style="fill:#E0E0E0;" d="M389.49,251.843c-0.096-0.107,0.651-0.938,1.667-1.855c1.016-0.917,1.919-1.574,2.016-1.468
				c0.097,0.106-0.649,0.936-1.667,1.855C390.488,251.293,389.585,251.951,389.49,251.843z"/>
		</g>
		<g>
			<path style="fill:#E0E0E0;" d="M383.899,256.785c-0.095-0.108,0.249-0.566,0.768-1.022c0.519-0.457,1.017-0.739,1.112-0.631
				c0.095,0.108-0.249,0.566-0.768,1.022C384.491,256.61,383.994,256.893,383.899,256.785z"/>
		</g>
	</g>
	<g>
		<g>
			<path style="fill:#E0E0E0;" d="M95.599,235.875c0.122-0.076,0.522,0.332,0.894,0.912c0.371,0.58,0.575,1.114,0.455,1.193
				c-0.12,0.079-0.52-0.329-0.893-0.912C95.681,236.485,95.477,235.951,95.599,235.875z"/>
		</g>
		<g>
			<path style="fill:#E0E0E0;" d="M90.726,227.122c0.129-0.063,0.754,0.876,1.395,2.097c0.641,1.222,1.059,2.269,0.934,2.34
				c-0.125,0.071-0.75-0.868-1.395-2.098C91.015,228.232,90.597,227.184,90.726,227.122z"/>
		</g>
		<g>
			<path style="fill:#E0E0E0;" d="M86.738,217.93c0.135-0.05,0.664,0.946,1.181,2.225c0.518,1.279,0.83,2.362,0.699,2.42
				c-0.132,0.058-0.661-0.938-1.182-2.225C86.916,219.064,86.604,217.98,86.738,217.93z"/>
		</g>
		<g>
			<path style="fill:#E0E0E0;" d="M83.683,208.389c0.139-0.036,0.566,1.008,0.954,2.331c0.388,1.324,0.591,2.433,0.454,2.478
				c-0.137,0.044-0.564-0.999-0.954-2.332C83.747,209.535,83.544,208.425,83.683,208.389z"/>
		</g>
		<g>
			<path style="fill:#E0E0E0;" d="M81.612,198.587c0.142-0.022,0.46,1.06,0.711,2.417c0.25,1.357,0.339,2.481,0.198,2.511
				c-0.14,0.03-0.459-1.051-0.71-2.417C81.559,199.733,81.47,198.609,81.612,198.587z"/>
		</g>
		<g>
			<path style="fill:#E0E0E0;" d="M80.582,188.622c0.144-0.006,0.345,1.103,0.45,2.478c0.105,1.375,0.074,2.503-0.069,2.518
				c-0.143,0.016-0.345-1.094-0.45-2.479C80.408,189.756,80.439,188.628,80.582,188.622z"/>
		</g>
		<g>
			<path style="fill:#E0E0E0;" d="M80.652,178.6c0.144,0.01,0.221,1.135,0.173,2.513c-0.048,1.378-0.204,2.495-0.348,2.495
				c-0.144,0-0.221-1.125-0.172-2.513C80.352,179.707,80.508,178.59,80.652,178.6z"/>
		</g>
		<g>
			<path style="fill:#E0E0E0;" d="M81.872,168.659c0.141,0.027,0.087,1.153-0.121,2.516c-0.208,1.363-0.493,2.454-0.636,2.437
				c-0.143-0.017-0.089-1.143,0.121-2.516C81.446,169.723,81.731,168.632,81.872,168.659z"/>
		</g>
		<g>
			<path style="fill:#E0E0E0;" d="M84.289,158.937c0.137,0.044-0.055,1.156-0.428,2.482c-0.374,1.327-0.79,2.375-0.93,2.341
				c-0.14-0.034,0.052-1.145,0.429-2.482C83.736,159.941,84.152,158.893,84.289,158.937z"/>
		</g>
		<g>
			<path style="fill:#E0E0E0;" d="M87.873,149.58c0.131,0.06-0.195,1.141-0.727,2.413c-0.532,1.273-1.072,2.263-1.207,2.212
				c-0.135-0.051,0.191-1.131,0.727-2.413C87.202,150.51,87.742,149.52,87.873,149.58z"/>
		</g>
		<g>
			<path style="fill:#E0E0E0;" d="M92.555,140.722c0.122,0.075-0.33,1.109-1.011,2.307c-0.681,1.199-1.336,2.117-1.464,2.05
				c-0.127-0.066,0.325-1.1,1.011-2.307C91.778,141.565,92.433,140.647,92.555,140.722z"/>
		</g>
		<g>
			<path style="fill:#E0E0E0;" d="M98.267,132.501c0.112,0.09-0.461,1.06-1.281,2.166c-0.82,1.107-1.581,1.938-1.7,1.856
				c-0.118-0.081,0.455-1.051,1.281-2.166C97.394,133.242,98.155,132.411,98.267,132.501z"/>
		</g>
		<g>
			<path style="fill:#E0E0E0;" d="M104.951,125.04c0.1,0.103-0.59,0.995-1.541,1.993c-0.951,0.998-1.81,1.729-1.918,1.633
				c-0.108-0.095,0.582-0.987,1.541-1.993C103.992,125.668,104.85,124.937,104.951,125.04z"/>
		</g>
		<g>
			<path style="fill:#E0E0E0;" d="M112.527,118.488c0.086,0.115-0.712,0.912-1.783,1.779c-1.071,0.867-2.016,1.482-2.111,1.374
				c-0.095-0.108,0.704-0.905,1.784-1.779C111.496,118.988,112.441,118.373,112.527,118.488z"/>
		</g>
		<g>
			<path style="fill:#E0E0E0;" d="M120.898,112.996c0.07,0.126-0.827,0.808-2.003,1.524c-1.176,0.716-2.194,1.199-2.274,1.079
				c-0.08-0.12,0.817-0.802,2.003-1.524C119.81,113.354,120.828,112.871,120.898,112.996z"/>
		</g>
		<g>
			<path style="fill:#E0E0E0;" d="M129.949,108.71c0.051,0.134-0.933,0.685-2.198,1.23c-1.266,0.545-2.342,0.882-2.404,0.752
				c-0.062-0.13,0.921-0.68,2.198-1.23C128.821,108.913,129.897,108.576,129.949,108.71z"/>
		</g>
		<g>
			<path style="fill:#E0E0E0;" d="M139.506,105.715c0.033,0.14-1.017,0.552-2.345,0.919c-1.328,0.367-2.441,0.554-2.484,0.417
				c-0.044-0.137,1.006-0.548,2.345-0.919C138.361,105.761,139.473,105.575,139.506,105.715z"/>
		</g>
		<g>
			<path style="fill:#E0E0E0;" d="M149.372,104.017c0.014,0.143-1.08,0.412-2.443,0.601c-1.364,0.189-2.49,0.227-2.515,0.085
				c-0.025-0.142,1.069-0.411,2.444-0.601C148.232,103.912,149.358,103.874,149.372,104.017z"/>
		</g>
		<g>
			<path style="fill:#E0E0E0;" d="M159.38,103.621c-0.005,0.144-1.126,0.268-2.503,0.278c-1.378,0.009-2.501-0.1-2.507-0.243
				c-0.007-0.144,1.114-0.268,2.504-0.278C158.261,103.368,159.384,103.477,159.38,103.621z"/>
		</g>
		<g>
			<path style="fill:#E0E0E0;" d="M169.351,104.542c-0.024,0.142-1.151,0.117-2.517-0.055c-1.367-0.172-2.465-0.428-2.452-0.572
				c0.012-0.143,1.139-0.119,2.518,0.055C168.277,104.144,169.375,104.4,169.351,104.542z"/>
		</g>
		<g>
			<path style="fill:#E0E0E0;" d="M179.105,106.802c-0.043,0.137-1.157-0.041-2.487-0.398c-1.331-0.357-2.384-0.761-2.352-0.901
				c0.031-0.14,1.145,0.038,2.487,0.398C178.095,106.261,179.148,106.665,179.105,106.802z"/>
		</g>
		<g>
			<path style="fill:#E0E0E0;" d="M188.445,110.417c-0.062,0.13-1.139-0.206-2.405-0.749c-1.266-0.544-2.25-1.094-2.199-1.228
				c0.051-0.134,1.128,0.201,2.405,0.75C187.523,109.738,188.507,110.288,188.445,110.417z"/>
		</g>
		<g>
			<path style="fill:#E0E0E0;" d="M197.15,115.369c-0.081,0.119-1.095-0.374-2.265-1.1c-1.171-0.726-2.059-1.422-1.996-1.536
				c0.077-0.137,1.088,0.361,2.27,1.093C196.339,114.559,197.23,115.25,197.15,115.369z"/>
		</g>
		<g>
			<path style="fill:#E0E0E0;" d="M205.084,121.481c-0.096,0.107-1.035-0.516-2.099-1.393c-1.064-0.877-1.855-1.68-1.768-1.795
				c0.087-0.114,1.027,0.509,2.099,1.393C204.388,120.57,205.179,121.374,205.084,121.481z"/>
		</g>
		<g>
			<path style="fill:#E0E0E0;" d="M212.201,128.531c-0.107,0.096-0.965-0.636-1.916-1.634c-0.951-0.999-1.64-1.891-1.54-1.994
				c0.101-0.102,0.959,0.629,1.917,1.635C211.619,127.542,212.308,128.435,212.201,128.531z"/>
		</g>
		<g>
			<path style="fill:#E0E0E0;" d="M218.515,136.309c-0.116,0.085-0.894-0.732-1.736-1.825c-0.843-1.093-1.435-2.052-1.324-2.143
				c0.111-0.091,0.889,0.726,1.736,1.825C218.039,135.264,218.631,136.224,218.515,136.309z"/>
		</g>
		<g>
			<path style="fill:#E0E0E0;" d="M224.082,144.639c-0.123,0.074-0.825-0.809-1.567-1.972c-0.742-1.164-1.247-2.172-1.128-2.253
				c0.119-0.08,0.821,0.803,1.567,1.972C223.7,143.555,224.205,144.564,224.082,144.639z"/>
		</g>
		<g>
			<path style="fill:#E0E0E0;" d="M228.972,153.384c-0.128,0.065-0.76-0.869-1.412-2.086c-0.652-1.217-1.078-2.261-0.953-2.332
				s0.757,0.863,1.412,2.086C228.673,152.275,229.1,153.319,228.972,153.384z"/>
		</g>
		<g>
			<path style="fill:#E0E0E0;" d="M232.241,160.161c-0.131,0.059-0.472-0.4-0.761-1.025c-0.29-0.626-0.419-1.182-0.289-1.244
				c0.13-0.061,0.471,0.397,0.761,1.025C232.242,159.544,232.372,160.101,232.241,160.161z"/>
		</g>
	</g>
	<g>
		<g>
			<path style="fill:#E0E0E0;" d="M109.665,281.184c-0.064-0.129,0.397-0.466,1.031-0.753c0.634-0.287,1.192-0.412,1.246-0.279
				c0.054,0.133-0.408,0.47-1.031,0.753C110.288,281.188,109.73,281.313,109.665,281.184z"/>
		</g>
		<g>
			<path style="fill:#E0E0E0;" d="M101.515,286.586c-0.094-0.107,0.663-0.923,1.751-1.745c1.087-0.825,2.079-1.33,2.156-1.211
				c0.079,0.122-0.771,0.814-1.841,1.626C102.508,286.066,101.61,286.695,101.515,286.586z"/>
		</g>
		<g>
			<path style="fill:#E0E0E0;" d="M94.863,293.761c-0.116-0.084,0.493-1.004,1.361-2.054c0.869-1.05,1.658-1.821,1.762-1.722
				c0.105,0.099-0.505,1.018-1.361,2.054C95.769,293.074,94.979,293.845,94.863,293.761z"/>
		</g>
		<g>
			<path style="fill:#E0E0E0;" d="M89.91,302.203c-0.132-0.058,0.27-1.086,0.896-2.295c0.627-1.209,1.235-2.129,1.359-2.055
				c0.123,0.074-0.278,1.101-0.897,2.295C90.65,301.341,90.041,302.261,89.91,302.203z"/>
		</g>
		<g>
			<path style="fill:#E0E0E0;" d="M86.786,311.48c-0.141-0.03,0.044-1.118,0.412-2.43c0.368-1.312,0.777-2.336,0.913-2.289
				c0.136,0.047-0.048,1.135-0.412,2.43C87.335,310.486,86.926,311.51,86.786,311.48z"/>
		</g>
		<g>
			<path style="fill:#E0E0E0;" d="M85.64,321.202c-0.144,0-0.19-1.103-0.103-2.462c0.088-1.36,0.274-2.448,0.417-2.43
				c0.143,0.018,0.189,1.121,0.103,2.463C85.971,320.115,85.784,321.202,85.64,321.202z"/>
		</g>
		<g>
			<path style="fill:#E0E0E0;" d="M86.654,330.929c-0.138,0.033-0.505-1.018-0.722-2.365c-0.22-1.347-0.207-2.459-0.066-2.472
				c0.145-0.014,0.363,1.061,0.58,2.389C86.66,329.807,86.795,330.896,86.654,330.929z"/>
		</g>
		<g>
			<path style="fill:#E0E0E0;" d="M89.934,340.147c-0.126,0.064-0.73-0.87-1.263-2.125c-0.535-1.255-0.787-2.338-0.652-2.384
				c0.138-0.048,0.605,0.944,1.132,2.181C89.676,339.056,90.064,340.082,89.934,340.147z"/>
		</g>
		<g>
			<path style="fill:#E0E0E0;" d="M95.217,348.384c-0.111,0.091-0.848-0.73-1.645-1.835c-0.797-1.105-1.344-2.063-1.222-2.14
				c0.122-0.076,0.858,0.745,1.645,1.835C94.781,347.335,95.328,348.293,95.217,348.384z"/>
		</g>
		<g>
			<path style="fill:#E0E0E0;" d="M102.102,355.344c-0.091,0.112-0.979-0.543-1.984-1.461c-1.005-0.919-1.736-1.745-1.633-1.846
				c0.103-0.1,0.992,0.554,1.984,1.461C101.462,354.405,102.193,355.232,102.102,355.344z"/>
		</g>
		<g>
			<path style="fill:#E0E0E0;" d="M110.208,360.837c-0.068,0.127-1.066-0.345-2.228-1.055c-1.162-0.71-2.038-1.381-1.956-1.499
				c0.082-0.118,1.079,0.354,2.228,1.055C109.4,360.039,110.276,360.71,110.208,360.837z"/>
		</g>
		<g>
			<path style="fill:#E0E0E0;" d="M119.201,364.709c-0.043,0.137-1.111-0.139-2.385-0.618c-1.275-0.479-2.261-0.974-2.203-1.105
				c0.058-0.132,1.126,0.145,2.386,0.618C118.258,364.076,119.244,364.572,119.201,364.709z"/>
		</g>
		<g>
			<path style="fill:#E0E0E0;" d="M128.771,366.787c-0.015,0.143-1.116,0.079-2.459-0.144c-1.343-0.223-2.406-0.518-2.374-0.658
				c0.032-0.14,1.133-0.076,2.459,0.144C127.723,366.349,128.786,366.644,128.771,366.787z"/>
		</g>
		<g>
			<path style="fill:#E0E0E0;" d="M138.556,366.875c0.016,0.143-1.075,0.308-2.435,0.368c-1.361,0.06-2.461-0.008-2.458-0.152
				c0.003-0.144,1.093-0.309,2.435-0.368C137.439,366.664,138.54,366.733,138.556,366.875z"/>
		</g>
		<g>
			<path style="fill:#E0E0E0;" d="M148.142,364.897c0.045,0.137-0.988,0.527-2.305,0.87c-1.318,0.344-2.409,0.507-2.437,0.366
				c-0.028-0.141,1.004-0.531,2.306-0.87C147.007,364.924,148.098,364.76,148.142,364.897z"/>
		</g>
		<g>
			<path style="fill:#E0E0E0;" d="M157.151,361.062c0.07,0.126-0.867,0.709-2.093,1.301c-1.226,0.593-2.264,0.965-2.32,0.832
				c-0.055-0.133,0.882-0.715,2.093-1.301C156.042,361.308,157.081,360.936,157.151,361.062z"/>
		</g>
		<g>
			<path style="fill:#E0E0E0;" d="M165.3,355.633c0.091,0.111-0.725,0.854-1.823,1.659c-1.098,0.805-2.052,1.359-2.131,1.238
				c-0.079-0.12,0.737-0.863,1.823-1.659C164.255,356.076,165.209,355.522,165.3,355.633z"/>
		</g>
		<g>
			<path style="fill:#E0E0E0;" d="M172.375,348.867c0.109,0.094-0.567,0.967-1.509,1.949c-0.942,0.982-1.786,1.693-1.885,1.589
				c-0.099-0.105,0.577-0.977,1.509-1.949C171.423,349.484,172.267,348.773,172.375,348.867z"/>
		</g>
		<g>
			<path style="fill:#E0E0E0;" d="M178.191,340.978c0.123,0.074-0.393,1.05-1.152,2.18c-0.76,1.13-1.47,1.977-1.585,1.89
				c-0.115-0.086,0.401-1.063,1.152-2.181C177.358,341.751,178.067,340.905,178.191,340.978z"/>
		</g>
		<g>
			<path style="fill:#E0E0E0;" d="M182.528,332.198c0.135,0.051-0.199,1.102-0.747,2.348c-0.547,1.246-1.095,2.204-1.224,2.139
				c-0.128-0.065,0.206-1.116,0.747-2.349C181.846,333.105,182.394,332.147,182.528,332.198z"/>
		</g>
		<g>
			<path style="fill:#E0E0E0;" d="M184.686,325.135c0.14,0.031,0.116,0.603-0.055,1.276c-0.171,0.673-0.422,1.187-0.56,1.147
				c-0.138-0.039-0.113-0.611,0.055-1.276C184.295,325.617,184.546,325.103,184.686,325.135z"/>
		</g>
	</g>
	<g>
		<path style="fill:#F5F5F5;" d="M296.675,72.866l-44.712,12.008c-1.734,0.466-3.517-0.563-3.983-2.297l-8.305-30.924
			c-0.466-1.734,0.563-3.517,2.297-3.983l44.712-12.008c1.734-0.466,3.517,0.563,3.983,2.297l8.305,30.924
			C299.437,70.617,298.409,72.4,296.675,72.866z"/>
		<g>
			<g>
				<path style="fill:#E0E0E0;" d="M288.698,39.611c0.014,0.011-0.098,0.189-0.325,0.518c-0.264,0.371-0.6,0.843-1.014,1.424
					c-0.939,1.278-2.23,3.034-3.807,5.18c-1.635,2.192-3.564,4.779-5.699,7.642c-1.078,1.437-2.208,2.942-3.38,4.502
					c-0.587,0.78-1.185,1.574-1.792,2.379c-0.64,0.849-1.573,1.495-2.625,1.79c-1.051,0.301-2.185,0.238-3.174-0.151
					c-0.93-0.396-1.847-0.786-2.749-1.169c-1.793-0.77-3.523-1.514-5.173-2.223c-3.278-1.421-6.238-2.704-8.747-3.791
					c-2.436-1.076-4.429-1.957-5.88-2.597c-0.648-0.298-1.174-0.54-1.588-0.731c-0.361-0.172-0.547-0.271-0.54-0.287
					c0.007-0.017,0.207,0.05,0.581,0.191c0.424,0.167,0.963,0.379,1.626,0.641c1.467,0.603,3.482,1.432,5.944,2.445
					c2.522,1.058,5.497,2.306,8.791,3.689c1.654,0.7,3.388,1.434,5.185,2.195c0.897,0.379,1.81,0.764,2.736,1.155
					c0.888,0.347,1.903,0.403,2.845,0.133c0.943-0.265,1.779-0.842,2.355-1.603c0.608-0.803,1.208-1.595,1.797-2.373
					c1.18-1.554,2.318-3.053,3.404-4.484c2.169-2.838,4.128-5.402,5.788-7.575c1.632-2.104,2.967-3.826,3.939-5.08
					c0.446-0.557,0.807-1.01,1.092-1.365C288.543,39.757,288.684,39.6,288.698,39.611z"/>
			</g>
			<g>
				<path style="fill:#E0E0E0;" d="M262.607,60.798c0.123,0.075-2.378,4.399-5.584,9.657c-3.208,5.26-5.906,9.461-6.029,9.386
					c-0.123-0.075,2.377-4.398,5.585-9.658C259.785,64.926,262.485,60.723,262.607,60.798z"/>
			</g>
			<g>
				<path style="fill:#E0E0E0;" d="M275.227,57.409c0.075-0.123,4.399,2.378,9.657,5.584c5.26,3.208,9.461,5.906,9.387,6.029
					c-0.075,0.123-4.398-2.377-9.658-5.585C279.355,60.231,275.153,57.532,275.227,57.409z"/>
			</g>
		</g>
	</g>
	<g id="XMLID_00000027562487795114861030000004969415385432915903_">
		<g id="XMLID_00000017502489043739124150000016351708543322181535_">
			<path style="fill:#EBEBEB;" d="M447.727,161.043L447.727,161.043c-13.657,0-24.728-11.071-24.728-24.728l0,0
				c0-13.657,11.071-24.728,24.728-24.728l0,0c13.657,0,24.728,11.071,24.728,24.728l0,0
				C472.455,149.971,461.384,161.043,447.727,161.043z"/>
		</g>
		<g id="XMLID_00000014624985116420873030000011380759488834665125_">
			<path style="fill:#FFFFFF;" d="M443.959,151.262h6.019v-15.074h4.2l0.448-5.047h-4.647c0,0,0-1.884,0-2.875
				c0-1.19,0.239-1.66,1.39-1.66c0.926,0,3.258,0,3.258,0v-5.238c0,0-3.435,0-4.168,0c-4.479,0-6.499,1.973-6.499,5.749
				c0,3.289,0,4.024,0,4.024h-3.131v5.11h3.131V151.262z"/>
		</g>
	</g>
	<g>
		<g>
			<g>
				<g>
					<path style="fill:#EBEBEB;" d="M139.224,426.76c0.68,2.966-1.173,5.922-4.139,6.602c-2.966,0.68-5.922-1.173-6.602-4.139
						c-0.68-2.966,1.173-5.922,4.139-6.602C135.588,421.941,138.544,423.794,139.224,426.76z"/>
				</g>
			</g>
			<g>
				<g>
					<g>
						<path style="fill:#EBEBEB;" d="M113.222,432.816l41.299-9.487l-3.598-2.619c-2.229-1.623-3.797-3.997-4.415-6.685l-2.573-11.2
							c-1.909-8.311-10.195-13.501-18.506-11.592l0,0c-8.311,1.909-13.501,10.195-11.592,18.506l2.475,10.773
							c0.573,2.495,0.292,5.11-0.797,7.427L113.222,432.816z"/>
					</g>
				</g>
				<g>
					<g>
						<path style="fill:#EBEBEB;" d="M126.119,395.034l-0.526,0.121c-0.974,0.224-1.944-0.384-2.168-1.358l-1.168-5.084
							c-0.224-0.974,0.384-1.944,1.358-2.168l0.526-0.121c0.974-0.224,1.944,0.384,2.168,1.358l1.168,5.084
							C127.701,393.84,127.093,394.81,126.119,395.034z"/>
					</g>
				</g>
			</g>
			<g>
				<g>
					<g>
						<path style="fill:#E0E0E0;" d="M154.548,423.42c0.02,0.086-9.148,2.261-20.474,4.859c-11.33,2.599-20.527,4.635-20.547,4.55
							c-0.02-0.085,9.146-2.261,20.476-4.859C145.329,425.372,154.529,423.335,154.548,423.42z"/>
					</g>
				</g>
			</g>
			<g>
				<g>
					<path style="fill:#E0E0E0;" d="M128.525,429.389c0,0,2.658,1.342,5.622,0.663c3.52-0.807,5.114-3.125,5.114-3.125
						L128.525,429.389z"/>
				</g>
			</g>
			<g>
				<g>
					<g>
						<path style="fill:#E0E0E0;" d="M141.434,401.349c-0.135-0.472-0.282-0.962-0.618-1.32c-0.336-0.358-0.921-0.533-1.327-0.258
							l0,0c-0.501,0.228-0.773,0.775-0.651,1.311c0.402,1.771,1.28,5.688,1.716,8.035c0.359,1.935,0.555,4.041-0.342,5.793
							c-0.692,1.353-2.002,2.304-3.404,2.892c-1.402,0.588-2.912,0.857-4.399,1.176c-1.88,0.403-3.757,0.896-5.482,1.746
							c-0.461,0.227-0.929,0.496-1.206,0.93c-0.276,0.434-0.292,1.074,0.096,1.412c0.355,0.309,0.887,0.263,1.354,0.199
							c4.802-0.664,9.629-1.415,14.194-3.049c0.949-0.34,1.94-0.76,2.511-1.591c0.646-0.943,0.599-2.183,0.487-3.32
							C143.894,410.568,142.743,405.925,141.434,401.349z"/>
					</g>
				</g>
			</g>
			<g>
				<g style="opacity:0.2;">
					<g>
						<g>
							<path style="fill:#FFFFFF;" d="M121.52,394.831c0.012-0.006,0.022-0.009,0.034-0.015c0.017-0.009,0.032-0.019,0.049-0.028
								L121.52,394.831z"/>
						</g>
					</g>
				</g>
			</g>
			<g>
				<g>
					<g>
						<path style="fill:#E0E0E0;" d="M134.804,391.928c-0.023,0.061-0.933-0.33-2.481-0.642c-0.772-0.165-1.708-0.266-2.748-0.304
							c-1.041-0.014-2.187,0.053-3.372,0.258c-1.183,0.218-2.281,0.553-3.253,0.927c-0.964,0.395-1.806,0.816-2.474,1.235
							c-1.346,0.827-2.066,1.506-2.108,1.457c-0.015-0.016,0.159-0.191,0.487-0.494c0.162-0.155,0.367-0.336,0.624-0.523
							c0.254-0.19,0.534-0.423,0.877-0.629c0.663-0.45,1.509-0.9,2.484-1.317c0.984-0.396,2.101-0.746,3.307-0.969
							c1.208-0.208,2.377-0.268,3.437-0.237c1.059,0.055,2.009,0.182,2.786,0.377c0.394,0.076,0.737,0.197,1.041,0.288
							c0.306,0.087,0.561,0.186,0.766,0.277C134.59,391.803,134.813,391.908,134.804,391.928z"/>
					</g>
				</g>
			</g>
			<g>
				<g>
					<g>
						<path style="fill:#FFFFFF;" d="M116.474,427.104c-0.091-0.036,0.441-1.329,0.635-3.018c0.21-1.687-0.002-3.069,0.095-3.083
							c0.075-0.023,0.436,1.376,0.221,3.12C117.222,425.869,116.541,427.144,116.474,427.104z"/>
					</g>
				</g>
			</g>
			<g>
				<g>
					<g>
						<path style="fill:#FFFFFF;" d="M135.46,432.155c0.018,0.033-0.277,0.24-0.831,0.397c-0.548,0.159-1.37,0.236-2.228,0.001
							c-0.859-0.234-1.528-0.719-1.919-1.134c-0.397-0.417-0.546-0.745-0.514-0.764c0.041-0.029,0.253,0.246,0.668,0.601
							c0.411,0.355,1.053,0.774,1.848,0.991c0.796,0.217,1.561,0.182,2.095,0.086C135.117,432.239,135.44,432.11,135.46,432.155z"/>
					</g>
				</g>
			</g>
			<g>
				<g>
					<g>
						<path style="fill:#FFFFFF;" d="M123.383,387.141c0.076,0.054-0.336,0.649-0.382,1.497c-0.065,0.847,0.265,1.49,0.183,1.534
							c-0.06,0.061-0.568-0.593-0.5-1.555C122.742,387.656,123.332,387.073,123.383,387.141z"/>
					</g>
				</g>
			</g>
		</g>
	</g>
	<g>
		<g>
			<g>
				<path style="fill:#EBEBEB;" d="M38.765,158.597c1.14-0.689,2.353-1.211,3.605-1.567l0.743-3.568l6.029-0.106l0.868,3.54
					c1.264,0.311,2.495,0.791,3.658,1.439l3.047-1.997l4.338,4.189l-1.889,3.115c0.689,1.14,1.211,2.354,1.567,3.606l3.568,0.743
					l0.106,6.029l-3.54,0.868c-0.311,1.263-0.791,2.494-1.439,3.658l1.997,3.047l-4.188,4.338l-3.115-1.889
					c-1.14,0.689-2.354,1.211-3.606,1.566l-0.743,3.568l-6.029,0.106l-0.868-3.54c-1.263-0.311-2.494-0.791-3.658-1.439L36.17,186.3
					l-4.338-4.188l1.889-3.115c-0.689-1.14-1.212-2.354-1.567-3.606l-3.568-0.743l-0.106-6.029l3.54-0.868
					c0.311-1.263,0.791-2.494,1.439-3.658l-1.997-3.047l4.188-4.338L38.765,158.597L38.765,158.597z M41.979,166.629
					c-2.481,2.57-2.41,6.665,0.161,9.147c2.57,2.481,6.665,2.409,9.146-0.161c2.481-2.57,2.409-6.665-0.161-9.146
					C48.555,163.987,44.46,164.059,41.979,166.629z"/>
			</g>
		</g>
	</g>
	<g>
		<g>
			<g>
				<path style="fill:#EBEBEB;" d="M446.369,303.063c1.107-0.669,2.285-1.176,3.5-1.521l0.721-3.464l5.853-0.103l0.842,3.436
					c1.227,0.302,2.422,0.767,3.551,1.397l2.958-1.939l4.211,4.066l-1.833,3.024c0.669,1.107,1.176,2.285,1.521,3.501l3.464,0.721
					l0.103,5.853l-3.436,0.842c-0.302,1.226-0.768,2.421-1.397,3.551l1.939,2.958l-4.066,4.211l-3.024-1.834
					c-1.107,0.669-2.285,1.176-3.5,1.521l-0.721,3.464l-5.853,0.103l-0.842-3.437c-1.226-0.302-2.421-0.768-3.551-1.397
					l-2.958,1.939l-4.211-4.066l1.833-3.024c-0.669-1.107-1.176-2.285-1.521-3.5l-3.464-0.721l-0.103-5.853l3.436-0.843
					c0.302-1.226,0.768-2.422,1.397-3.551l-1.939-2.958l4.066-4.211L446.369,303.063L446.369,303.063z M449.489,310.86
					c-2.409,2.495-2.339,6.471,0.156,8.88c2.495,2.409,6.471,2.339,8.879-0.156c2.409-2.495,2.339-6.471-0.156-8.88
					C455.873,308.295,451.898,308.365,449.489,310.86z"/>
			</g>
		</g>
	</g>
</g>
<g id="Background_Simple" style="display:none;">
	<path style="display:inline;fill:#F5F5F5;" d="M436.306,141.732l-0.974,1.593c-8.212,13.431-23.005,21.495-38.57,20.459
		c-2.001-0.133-3.993-0.411-5.957-0.838c-14.145-3.077-26.425-13.822-31.485-27.547c-2.976-8.072-3.784-17.358-9.46-23.776
		c-7.388-8.353-19.976-8.656-31.045-8.348c-11.069,0.308-23.666-0.028-31.017-8.414c-4.604-5.252-6.048-12.704-5.652-19.715
		c1.048-18.564,14.041-35.123,30.522-43.32c16.481-8.197,35.856-8.872,53.851-5.182c25.21,5.169,49.153,19.214,63.501,40.831
		C444.368,89.092,447.92,118.49,436.306,141.732z"/>
	<circle style="display:inline;fill:#F5F5F5;" cx="99.289" cy="386.989" r="36.504"/>
</g>
<g id="Table">
	<g>
		<path style="fill:#263238;" d="M470.493,452.787c0,0.144-98.726,0.26-220.482,0.26c-121.799,0-220.504-0.117-220.504-0.26
			c0-0.144,98.705-0.26,220.504-0.26C371.767,452.527,470.493,452.644,470.493,452.787z"/>
	</g>
</g>
<g id="Speech_Bubble">
	<g>
		<g>
			<g>
				<g>
					<g>
						<path style="fill:#FFFFFF;" d="M304.426,142.584l-167.691,15.123c-22.349,2.016-38.72,23.02-36.565,46.916l8.837,97.99
							c2.155,23.895,22.02,41.632,44.369,39.617l65.09-5.87c1.969-0.177,3.905,0.687,5.184,2.315l18.408,23.433
							c2.722,3.465,7.812,3.005,9.87-0.89l13.919-26.348c0.967-1.83,2.717-3.028,4.686-3.205l50.534-4.557
							c22.349-2.016,38.72-23.02,36.565-46.915l-8.837-97.99C346.64,158.305,326.776,140.568,304.426,142.584z"/>
						<g>
							<path style="fill:#263238;" d="M304.426,142.584c0,0,0.723-0.044,2.137-0.104c0.354-0.015,0.751-0.031,1.19-0.049
								c0.439-0.021,0.922-0.049,1.445,0.008c1.045,0.079,2.263,0.136,3.638,0.267c0.681,0.121,1.401,0.248,2.161,0.383
								c0.757,0.152,1.573,0.229,2.383,0.504c0.82,0.236,1.678,0.484,2.574,0.742c0.903,0.237,1.777,0.681,2.723,1.035
								c3.723,1.544,7.84,3.884,11.753,7.405c3.907,3.505,7.596,8.188,10.302,13.989c0.327,0.73,0.657,1.467,0.99,2.213
								c0.353,0.738,0.553,1.545,0.841,2.327c0.26,0.792,0.555,1.583,0.795,2.398c0.196,0.828,0.395,1.664,0.595,2.508
								c0.801,3.38,1.074,6.991,1.413,10.69c1.349,14.831,2.885,31.718,4.583,50.384c0.847,9.334,1.735,19.113,2.659,29.302
								c0.231,2.547,0.464,5.12,0.7,7.718c0.118,1.299,0.236,2.604,0.355,3.916l0.178,1.972l0.087,1.996
								c0.264,5.328-0.383,10.814-2.06,16.092c-1.67,5.274-4.367,10.337-8.031,14.734c-3.656,4.396-8.29,8.121-13.617,10.672
								c-2.648,1.307-5.497,2.221-8.412,2.902c-0.717,0.225-1.475,0.255-2.215,0.386l-2.235,0.324
								c-1.493,0.164-2.991,0.279-4.494,0.421c-6.013,0.544-12.107,1.095-18.277,1.654c-6.171,0.558-12.418,1.123-18.737,1.695
								c-3.156,0.288-6.33,0.577-9.522,0.868c-1.528,0.191-2.936,1.088-3.829,2.351c-0.438,0.624-0.774,1.379-1.164,2.085
								l-1.134,2.148c-3.029,5.736-6.089,11.532-9.18,17.384c-0.773,1.463-1.547,2.93-2.324,4.4
								c-0.391,0.717-0.742,1.51-1.319,2.174c-0.555,0.665-1.245,1.223-2.027,1.611c-1.571,0.772-3.478,0.793-5.078,0.076
								c-0.807-0.347-1.51-0.904-2.096-1.545c-0.585-0.653-1.058-1.321-1.593-1.981c-4.166-5.301-8.368-10.65-12.604-16.041
								c-1.059-1.348-2.12-2.699-3.184-4.052c-0.532-0.667-1.064-1.375-1.596-2.011c-0.553-0.616-1.23-1.119-1.983-1.459
								c-0.755-0.335-1.584-0.502-2.41-0.478c-0.833,0.054-1.717,0.149-2.574,0.222c-1.727,0.156-3.458,0.312-5.192,0.469
								c-13.87,1.251-27.943,2.521-42.185,3.806c-3.562,0.321-7.113,0.641-10.653,0.961c-3.525,0.309-7.088,0.734-10.642,0.465
								c-0.885-0.074-1.775-0.106-2.655-0.214l-2.618-0.472c-0.434-0.085-0.875-0.144-1.304-0.249l-1.274-0.37l-2.543-0.748
								l-2.451-0.995l-1.223-0.499l-1.167-0.616l-2.33-1.232l-2.196-1.448c-5.856-3.881-10.468-9.36-13.76-15.399
								c-0.206-0.378-0.436-0.745-0.622-1.133l-0.526-1.179l-1.05-2.355c-0.314-0.798-0.561-1.622-0.844-2.43
								c-0.25-0.819-0.603-1.607-0.766-2.449c-0.877-3.304-1.37-6.697-1.652-10.054c-2.418-26.866-4.75-52.781-6.971-77.467
								c-0.555-6.172-1.103-12.267-1.643-18.281c-0.557-6.04,0.003-12.116,1.739-17.76c3.396-11.314,11.33-20.822,21.284-25.731
								l1.858-0.92l1.934-0.723c0.645-0.235,1.281-0.492,1.929-0.708l1.982-0.509c0.66-0.165,1.315-0.347,1.975-0.497l2.007-0.29
								l1.998-0.288l1.991-0.181c5.296-0.475,10.494-0.941,15.59-1.398c10.19-0.913,19.97-1.79,29.305-2.626
								c37.336-3.332,67.551-6.028,88.437-7.892c10.438-0.92,18.543-1.634,24.046-2.119c2.745-0.236,4.84-0.416,6.255-0.538
								C303.703,142.631,304.426,142.584,304.426,142.584s-0.72,0.083-2.128,0.219c-1.414,0.133-3.507,0.331-6.25,0.59
								c-5.501,0.507-13.604,1.255-24.038,2.217c-20.883,1.903-51.092,4.656-88.422,8.057c-9.334,0.847-19.113,1.735-29.302,2.659
								c-5.095,0.462-10.292,0.933-15.588,1.414l-1.99,0.183l-1.976,0.288l-1.985,0.288c-0.653,0.149-1.3,0.33-1.953,0.494
								l-1.96,0.505c-0.64,0.214-1.269,0.469-1.907,0.702l-1.912,0.716l-1.837,0.911c-9.839,4.861-17.685,14.274-21.039,25.476
								c-1.715,5.59-2.266,11.601-1.71,17.586c0.544,6.014,1.095,12.108,1.654,18.28c2.231,24.686,4.573,50.6,7.001,77.465
								c0.284,3.363,0.77,6.689,1.639,9.966c0.161,0.832,0.512,1.611,0.759,2.421c0.28,0.799,0.524,1.614,0.834,2.403l1.04,2.328
								l0.52,1.166c0.184,0.383,0.412,0.745,0.615,1.119c3.256,5.968,7.814,11.383,13.598,15.214l2.169,1.43l2.301,1.215
								l1.152,0.609l1.207,0.492l2.419,0.982l2.509,0.737l1.257,0.366c0.423,0.104,0.858,0.162,1.286,0.245l2.582,0.466
								c0.868,0.106,1.746,0.137,2.619,0.21c3.496,0.266,7.02-0.153,10.563-0.464c3.54-0.319,7.091-0.64,10.653-0.961
								c14.242-1.284,28.315-2.553,42.185-3.803c1.734-0.156,3.464-0.312,5.192-0.468c0.871-0.073,1.711-0.165,2.604-0.223
								c0.905-0.027,1.812,0.157,2.637,0.523c0.822,0.371,1.559,0.92,2.158,1.587c0.574,0.686,1.076,1.358,1.617,2.036
								c1.063,1.354,2.124,2.704,3.183,4.053c4.235,5.393,8.436,10.742,12.601,16.044c0.525,0.649,1.03,1.356,1.57,1.954
								c0.543,0.593,1.187,1.106,1.927,1.423c1.466,0.655,3.208,0.637,4.647-0.068c0.716-0.355,1.348-0.867,1.86-1.478
								c0.525-0.598,0.86-1.349,1.261-2.087c0.777-1.47,1.552-2.936,2.325-4.399c3.092-5.852,6.155-11.647,9.186-17.381l1.135-2.148
								c0.393-0.708,0.712-1.441,1.2-2.14c0.967-1.367,2.498-2.345,4.168-2.553c3.199-0.29,6.38-0.579,9.543-0.867
								c6.32-0.568,12.567-1.13,18.738-1.685c6.171-0.555,12.265-1.103,18.278-1.643c1.502-0.141,3.005-0.255,4.491-0.418
								l2.208-0.32c0.73-0.129,1.479-0.157,2.188-0.38c2.88-0.672,5.695-1.572,8.313-2.863c5.265-2.517,9.851-6.197,13.472-10.544
								c3.629-4.349,6.304-9.358,7.962-14.581c1.665-5.226,2.311-10.661,2.055-15.942l-0.084-1.979l-0.176-1.972
								c-0.118-1.312-0.235-2.617-0.351-3.916c-0.233-2.598-0.464-5.172-0.692-7.719c-0.913-10.19-1.789-19.97-2.626-29.305
								c-1.669-18.669-3.179-35.558-4.506-50.392c-0.333-3.707-0.598-7.298-1.387-10.657c-0.197-0.84-0.392-1.671-0.586-2.495
								c-0.236-0.811-0.528-1.598-0.785-2.386c-0.285-0.778-0.481-1.581-0.831-2.316c-0.33-0.742-0.657-1.476-0.98-2.203
								c-2.678-5.775-6.335-10.445-10.213-13.944c-3.884-3.516-7.974-5.859-11.676-7.412c-0.941-0.356-1.809-0.803-2.708-1.042
								c-0.891-0.262-1.745-0.512-2.561-0.751c-0.807-0.278-1.619-0.359-2.373-0.514c-0.758-0.139-1.475-0.27-2.153-0.395
								c-1.369-0.139-2.584-0.204-3.627-0.292c-0.522-0.061-1.003-0.038-1.442-0.021c-0.438,0.013-0.834,0.025-1.188,0.036
								C305.152,142.576,304.426,142.584,304.426,142.584z"/>
						</g>
					</g>
				</g>
			</g>
		</g>
	</g>
</g>
<g id="Icon_Goal">
	<g>
		<g>
			<g>
				<g>
					
						<ellipse transform="matrix(0.1761 -0.9844 0.9844 0.1761 194.8537 435.9294)" style="fill:#FF725E;" cx="357.836" cy="101.566" rx="34.259" ry="34.259"/>
				</g>
				<g style="opacity:0.3;">
					
						<ellipse transform="matrix(0.1761 -0.9844 0.9844 0.1761 194.8537 435.9294)" cx="357.836" cy="101.566" rx="34.259" ry="34.259"/>
				</g>
				<g>
					
						<ellipse transform="matrix(0.8484 -0.5293 0.5293 0.8484 2.4991 204.2935)" style="fill:#FF725E;" cx="357.93" cy="97.783" rx="34.259" ry="34.259"/>
				</g>
				<g>
					
						<ellipse transform="matrix(0.1096 -0.994 0.994 0.1096 221.5193 442.8452)" style="fill:#FFFFFF;" cx="357.93" cy="97.783" rx="22.947" ry="22.947"/>
				</g>
				<g>
					<path style="fill:#FF725E;" d="M369.156,98.064c-0.155,6.2-5.306,11.1-11.506,10.945c-6.2-0.155-11.1-5.306-10.946-11.506
						c0.155-6.2,5.307-11.1,11.506-10.946C364.41,86.712,369.311,91.864,369.156,98.064z"/>
				</g>
				<g>
					<polygon style="fill:#455A64;" points="382.427,73.307 381.679,65.977 389.315,58.203 389.653,66.101 					"/>
				</g>
				<g>
					<polygon style="fill:#455A64;" points="398.535,67.892 391.005,67.089 383.261,74.175 390.805,75.173 					"/>
				</g>
				<g style="opacity:0.3;">
					<path d="M359.434,97.657l26.686-19.338c-0.856-1.351-1.954-2.713-3.177-4.081l-23.465,21.639L359.434,97.657z"/>
				</g>
				<g>
					<g>
						<path style="fill:#263238;" d="M389.987,65.006c-3.643,3.466-7.285,6.932-10.928,10.398
							c-5.779,5.498-11.558,10.997-17.337,16.495c-1.328,1.264-2.657,2.528-3.985,3.792c-1.263,1.201,0.614,3.151,1.878,1.949
							c3.643-3.466,7.285-6.932,10.928-10.398c5.779-5.498,11.558-10.997,17.337-16.495c1.328-1.264,2.657-2.528,3.985-3.792
							C393.128,65.753,391.251,63.803,389.987,65.006L389.987,65.006z"/>
					</g>
				</g>
			</g>
		</g>
	</g>
</g>
<g id="Megaphone">
	<g style="opacity:0.2;">
		<path d="M325.593,225.38c-0.432-9.864-2.225-19.707-4.41-29.518c-0.511-2.174-1.02-4.342-1.527-6.503
			c-0.535-2.152-1.144-4.271-1.71-6.398c-1.105-4.264-2.357-8.441-3.637-12.574c-2.456-8.306-6.222-18.36-9.124-26.188
			c-5.09-1.824-11.592-2.092-19.294-1.038l-56.25,8.121c-11.549,11.323-22.188,20.071-30.981,26.542
			c-0.117-0.776-0.242-1.548-0.35-2.328l-48.259,21.982c-9.07,5.66-13.741,17.417-8.302,30.981l5.342,14.777l3.703,7.595
			c4.297,8.818,12.889,13.268,20.917,11.487l-0.498,0.199c0.204-0.074,0.402-0.148,0.605-0.222c1.409-0.323,2.801-0.816,4.147-1.535
			c0.976-0.365,1.946-0.731,2.908-1.097l39.663,51.017c2.897,3.726,8.275,3.613,11.033-0.23l12.77-17.793
			c2.403-3.348,1.782-8.142-1.38-10.666c-8.276-6.604-23.037-19.27-28.429-29.533c-0.197-0.434-1.765-3.932-1.931-5.567
			c2.522-1.04,5.107-2.104,7.768-3.194c2.928-0.608,5.93-1.195,9.008-1.749c6.364-1.119,13.049-2.121,20.026-2.583
			c6.973-0.48,14.228,0.003,21.685,0.949c14.95,1.846,30.524,5.74,46.97,9.5l0.798,0.139l0.923-0.041
			c0.622-0.013,1.146-0.373,1.715-0.567c0.472-0.37,0.972-0.719,1.412-1.128l1.137-1.414c1.239-2.072,2.166-4.371,2.604-6.773
			C325.641,235.253,325.873,230.295,325.593,225.38z"/>
	</g>
	<g>
		<g>
			<g>
				<g>
					<g>
						<g>
							<g>
								<g>
									<g>
										<path style="fill:#E0E0E0;" d="M161.261,191.55c0,0,20.191-7.68,51.539-34.205c22.925-19.398,40.362-41.843,48.077-52.504
											c3.705-5.12,10.649-6.339,15.623-2.526c7.674,5.884,18.74,21.204,32.341,61.106c23.979,70.352,11.11,84.892,5.26,84.196
											c-5.85-0.698-44.745-11.255-69.839-10.7c-25.093,0.556-62.707,10.855-62.707,10.855L161.261,191.55z"/>
										<g>
											<path style="fill:#263238;" d="M161.261,191.55c0,0,0.132,0.332,0.369,0.974c0.239,0.649,0.588,1.601,1.048,2.85
												c0.918,2.515,2.27,6.222,4.026,11.033c3.495,9.621,8.591,23.647,15.007,41.309l-0.201-0.104
												c10.987-2.916,23.535-5.843,37.474-8.199c6.971-1.15,14.297-2.165,21.962-2.571c7.671-0.422,15.642,0.149,23.779,1.155
												c8.141,1.023,16.47,2.505,24.973,4.213c4.252,0.854,8.545,1.779,12.883,2.738c2.168,0.477,4.349,0.958,6.543,1.44
												c1.096,0.244,2.197,0.467,3.301,0.688c0.552,0.11,1.103,0.186,1.655,0.281c0.526,0.044,1.058,0.013,1.567-0.171
												c1.028-0.322,1.91-1.047,2.637-1.876c0.721-0.848,1.286-1.826,1.783-2.837c0.937-2.06,1.503-4.294,1.882-6.559
												c0.739-4.548,0.713-9.24,0.427-13.927c-0.636-9.391-2.49-18.828-4.786-28.252c-2.067-8.462-4.55-16.711-7.177-24.778
												c-2.636-8.065-5.445-15.945-8.473-23.58c-3.04-7.627-6.274-15.032-9.988-22c-1.853-3.485-3.846-6.847-5.998-10.047
												c-2.161-3.189-4.525-6.207-7.25-8.789c-0.668-0.66-1.386-1.256-2.11-1.841c-0.353-0.307-0.749-0.533-1.12-0.803
												c-0.399-0.221-0.792-0.459-1.209-0.641c-1.663-0.734-3.504-1.082-5.296-0.879c-1.79,0.177-3.529,0.791-4.995,1.799
												l-0.549,0.378l-0.509,0.428c-0.352,0.271-0.646,0.604-0.957,0.918c-0.594,0.647-1.112,1.37-1.642,2.099
												c-4.233,5.777-8.54,11.239-12.858,16.39c-8.632,10.306-17.286,19.388-25.649,27.181
												c-16.865,15.454-32.076,26.139-42.967,32.808c-5.461,3.322-9.858,5.637-12.886,7.103
												c-1.511,0.741-2.688,1.253-3.481,1.592C161.676,191.411,161.261,191.55,161.261,191.55
												c0.147-0.065,0.471-0.208,1.192-0.527c0.785-0.354,1.954-0.882,3.456-1.637c3.01-1.495,7.387-3.836,12.826-7.182
												c5.434-3.352,11.925-7.715,19.17-13.173c1.804-1.374,3.687-2.774,5.571-4.298c1.899-1.503,3.861-3.05,5.826-4.71
												c3.991-3.247,8.068-6.844,12.253-10.724c8.335-7.8,16.962-16.885,25.569-27.189c4.305-5.15,8.6-10.61,12.819-16.383
												c0.521-0.718,1.05-1.46,1.673-2.141c0.323-0.327,0.629-0.672,0.994-0.956l0.53-0.445l0.571-0.394
												c1.526-1.051,3.338-1.695,5.208-1.881c1.872-0.213,3.799,0.146,5.538,0.913c0.436,0.19,0.847,0.438,1.264,0.669
												c0.385,0.278,0.807,0.522,1.163,0.832c0.737,0.594,1.467,1.2,2.145,1.868c2.764,2.615,5.147,5.655,7.324,8.862
												c2.167,3.217,4.17,6.593,6.032,10.089c3.732,6.989,6.975,14.407,10.024,22.046c3.036,7.646,5.85,15.533,8.491,23.607
												c2.631,8.076,5.119,16.337,7.19,24.815c2.301,9.444,4.159,18.903,4.797,28.343c0.286,4.713,0.313,9.435-0.437,14.044
												c-0.385,2.296-0.96,4.57-1.925,6.691c-0.514,1.045-1.1,2.06-1.861,2.955c-0.77,0.875-1.712,1.661-2.865,2.025
												c-0.564,0.204-1.188,0.246-1.785,0.191c-0.563-0.096-1.133-0.176-1.689-0.287c-1.11-0.223-2.216-0.448-3.313-0.692
												c-2.194-0.484-4.375-0.966-6.544-1.445c-4.335-0.962-8.625-1.889-12.872-2.745c-8.493-1.713-16.81-3.2-24.934-4.229
												c-8.121-1.012-16.06-1.589-23.697-1.178c-7.638,0.394-14.955,1.396-21.917,2.534
												c-13.923,2.331-26.474,5.232-37.453,8.116l-0.15,0.039l-0.052-0.144c-6.357-17.728-11.406-31.807-14.869-41.464
												c-1.716-4.808-3.039-8.512-3.936-11.026c-0.44-1.243-0.776-2.189-1.004-2.835
												C161.364,191.869,161.261,191.55,161.261,191.55z"/>
										</g>
									</g>
								</g>
							</g>
						</g>
					</g>
				</g>
			</g>
			<g style="opacity:0.3;">
				<g>
					<g>
						<g>
							<g>
								<path d="M304.598,167.568c12.525,37.528,16.258,70.289,8.34,73.174c-7.918,2.885-24.491-25.199-37.016-62.727
									c-12.524-37.527-16.258-70.288-8.34-73.173C275.5,101.956,292.072,130.04,304.598,167.568z"/>
							</g>
						</g>
					</g>
				</g>
			</g>
			<g>
				<g>
					<g>
						<g>
							<g>
								<path style="fill:#FFFFFF;" d="M269.323,155.918c0,0,18.84-9.945,26.566,16.476c7.725,26.42-11.44,28.773-11.44,28.773
									C277.766,187.832,272.676,172.799,269.323,155.918z"/>
							</g>
						</g>
					</g>
				</g>
			</g>
		</g>
		<g>
			<g>
				<g>
					<g>
						<path style="fill:#FF725E;" d="M142.226,220.445l7.753,27.045c0.997,3.476,4.315,5.76,7.918,5.449l0,0
							c2.466-0.213,4.88,0.794,6.462,2.697l44.451,53.424c3.1,3.726,8.856,3.613,11.808-0.23l13.666-17.793
							c2.571-3.348,1.907-8.142-1.477-10.666c-10.041-7.488-29.015-22.77-32.168-33.503c-2.007-6.833-1.754-10.181-0.906-11.807
							c1.114-2.137,1.399-4.608,0.451-6.823l-6.864-16.032c-1.284-3-4.349-4.837-7.6-4.557l-36.877,3.182
							C144.104,211.238,140.915,215.872,142.226,220.445z"/>
					</g>
				</g>
			</g>
		</g>
		<path style="opacity:0.3;" d="M164.498,255.802l8.253,9.92l29.655-14.836c0,0-2.29-4.661-2.1-6.062L164.498,255.802z"/>
		<g>
			<g>
				<g>
					<g>
						<g>
							<path style="fill:#FF725E;" d="M126.631,226.839l5.717,14.777l3.963,7.595c5.434,10.418,17.287,14.775,26.973,9.914
								l50.991-19.201c-15.253-19.017-23.47-41.429-27.112-66.048l-51.648,21.982C125.809,201.518,120.81,213.275,126.631,226.839z"
								/>
						</g>
					</g>
				</g>
			</g>
		</g>
		<g>
			<g>
				<g>
					<g>
						<path style="fill:#263238;" d="M182.508,197.282c0.154,0.36-9.236,4.8-20.97,9.916c-11.738,5.118-21.376,8.974-21.529,8.614
							c-0.154-0.359,9.234-4.798,20.973-9.916C172.715,200.78,182.354,196.923,182.508,197.282z"/>
					</g>
				</g>
			</g>
		</g>
		<g>
			<g>
				<g>
					<g>
						<path style="fill:#263238;" d="M185.698,204.953c0.154,0.36-9.236,4.799-20.971,9.915
							c-11.738,5.118-21.375,8.974-21.529,8.614c-0.154-0.359,9.234-4.798,20.973-9.916
							C175.906,208.45,185.545,204.594,185.698,204.953z"/>
					</g>
				</g>
			</g>
		</g>
		<g>
			<g>
				<g>
					<g>
						<path style="fill:#263238;" d="M188.889,212.623c0.153,0.359-9.236,4.8-20.971,9.915c-11.738,5.118-21.375,8.974-21.528,8.615
							c-0.154-0.359,9.234-4.798,20.972-9.916C179.096,216.121,188.735,212.264,188.889,212.623z"/>
					</g>
				</g>
			</g>
		</g>
		<g>
			<g>
				<g>
					<g>
						<path style="fill:#263238;" d="M192.079,220.294c0.154,0.36-9.236,4.8-20.971,9.916c-11.738,5.118-21.375,8.974-21.529,8.615
							c-0.153-0.36,9.235-4.799,20.973-9.916C182.286,223.791,191.926,219.935,192.079,220.294z"/>
					</g>
				</g>
			</g>
		</g>
		<g>
			<path style="fill:#263238;" d="M214.276,239.924c0.006,0.017-0.183,0.108-0.55,0.266c-0.421,0.174-0.955,0.394-1.614,0.666
				c-1.472,0.585-3.495,1.388-5.966,2.369c-5.045,1.983-12.014,4.721-19.741,7.674c-7.728,2.956-14.768,5.52-19.894,7.287
				c-2.563,0.885-4.643,1.582-6.087,2.043c-0.68,0.212-1.232,0.385-1.666,0.521c-0.383,0.114-0.587,0.165-0.593,0.148
				c-0.006-0.017,0.187-0.102,0.559-0.247c0.426-0.16,0.967-0.363,1.634-0.613c1.488-0.542,3.532-1.288,6.03-2.198
				c5.092-1.854,12.106-4.472,19.832-7.427c7.701-2.93,14.671-5.582,19.794-7.531c2.496-0.917,4.539-1.668,6.026-2.215
				c0.673-0.235,1.219-0.425,1.649-0.575C214.067,239.965,214.269,239.907,214.276,239.924z"/>
		</g>
		<g>
			<path style="fill:#263238;" d="M303.795,236.107c-0.008,0.005-0.07-0.079-0.185-0.248c-0.128-0.194-0.293-0.443-0.499-0.756
				c-0.449-0.701-1.077-1.683-1.878-2.933c-1.602-2.565-3.871-6.31-6.518-11.027c-5.284-9.431-11.989-22.851-17.601-38.392
				c-2.816-7.765-5.096-15.305-6.869-22.237c-0.467-1.727-0.86-3.427-1.242-5.078c-0.378-1.651-0.745-3.254-1.099-4.804
				c-0.695-3.101-1.355-5.988-1.913-8.635c-1.127-5.291-1.829-9.62-2.169-12.627c-0.18-1.502-0.283-2.673-0.337-3.467
				c-0.023-0.374-0.042-0.672-0.056-0.904c-0.01-0.204-0.01-0.309-0.001-0.309c0.009-0.001,0.027,0.103,0.054,0.305
				c0.028,0.231,0.063,0.527,0.107,0.899c0.088,0.79,0.223,1.956,0.434,3.451c0.401,2.994,1.157,7.301,2.328,12.575
				c0.604,2.637,1.265,5.522,1.974,8.617c0.363,1.547,0.738,3.147,1.124,4.794c0.389,1.646,0.789,3.341,1.261,5.063
				c1.795,6.911,4.084,14.431,6.894,22.18c5.6,15.508,12.238,28.926,17.434,38.391c2.602,4.734,4.821,8.504,6.369,11.1
				c0.765,1.272,1.365,2.271,1.794,2.983c0.188,0.324,0.339,0.582,0.456,0.783C303.755,236.009,303.802,236.102,303.795,236.107z"/>
		</g>
	</g>
</g>
<g id="Icon_Instagram">
	<g id="XMLID_00000038375657871356132700000016022855943388589987_">
		<g id="XMLID_00000053525647729972722140000018100310150930581932_">
			<path style="fill:#455A64;" d="M197.372,118.75L197.372,118.75c-14.35,0-25.983-11.633-25.983-25.983l0,0
				c0-14.35,11.633-25.983,25.983-25.983h0c14.35,0,25.983,11.633,25.983,25.983l0,0C223.355,107.117,211.722,118.75,197.372,118.75
				z"/>
		</g>
		<g id="XMLID_00000049194717959014168770000014577275354331757449_">
			<g id="XMLID_00000089562550102270856830000000671045758136117152_">
				<path style="fill:#FFFFFF;" d="M197.372,81.088c3.804,0,4.255,0.014,5.757,0.083c1.389,0.063,2.143,0.296,2.646,0.491
					c0.665,0.258,1.14,0.567,1.638,1.066c0.499,0.498,0.807,0.973,1.066,1.638c0.195,0.502,0.427,1.256,0.491,2.646
					c0.068,1.502,0.083,1.953,0.083,5.757c0,3.804-0.015,4.255-0.083,5.757c-0.064,1.389-0.295,2.143-0.491,2.645
					c-0.258,0.665-0.567,1.139-1.066,1.638c-0.498,0.498-0.973,0.807-1.638,1.065c-0.502,0.195-1.257,0.428-2.646,0.491
					c-1.502,0.068-1.952,0.083-5.757,0.083c-3.805,0-4.255-0.015-5.757-0.083c-1.389-0.063-2.143-0.296-2.645-0.491
					c-0.665-0.258-1.139-0.567-1.638-1.065c-0.498-0.499-0.807-0.973-1.066-1.638c-0.195-0.502-0.427-1.256-0.491-2.645
					c-0.068-1.502-0.083-1.953-0.083-5.757c0-3.804,0.015-4.255,0.083-5.757c0.063-1.389,0.296-2.143,0.491-2.646
					c0.259-0.665,0.567-1.139,1.066-1.638c0.499-0.499,0.973-0.807,1.638-1.066c0.502-0.195,1.257-0.427,2.645-0.491
					C193.118,81.102,193.568,81.088,197.372,81.088 M197.372,78.521c-3.869,0-4.354,0.017-5.874,0.086
					c-1.516,0.069-2.552,0.31-3.458,0.662c-0.937,0.364-1.731,0.851-2.523,1.643c-0.792,0.792-1.279,1.587-1.643,2.524
					c-0.352,0.906-0.593,1.942-0.662,3.458c-0.07,1.52-0.086,2.005-0.086,5.874c0,3.869,0.016,4.354,0.086,5.874
					c0.069,1.516,0.31,2.552,0.662,3.458c0.364,0.937,0.851,1.731,1.643,2.523c0.792,0.792,1.586,1.279,2.523,1.643
					c0.906,0.352,1.942,0.593,3.458,0.662c1.52,0.069,2.005,0.085,5.874,0.085c3.869,0,4.354-0.016,5.874-0.085
					c1.516-0.069,2.552-0.31,3.458-0.662c0.937-0.364,1.731-0.851,2.523-1.643c0.792-0.792,1.279-1.587,1.643-2.523
					c0.352-0.906,0.593-1.942,0.662-3.458c0.069-1.52,0.085-2.005,0.085-5.874c0-3.869-0.016-4.354-0.085-5.874
					c-0.07-1.516-0.31-2.552-0.662-3.458c-0.364-0.937-0.852-1.732-1.643-2.524c-0.792-0.792-1.586-1.279-2.523-1.643
					c-0.906-0.352-1.942-0.593-3.458-0.662C201.726,78.537,201.242,78.521,197.372,78.521"/>
			</g>
			<g id="XMLID_00000124138687874772360800000017377485768922181537_">
				<path style="fill:#FFFFFF;" d="M197.372,85.451c-4.04,0-7.316,3.275-7.316,7.316c0,4.04,3.276,7.316,7.316,7.316
					c4.04,0,7.316-3.275,7.316-7.316C204.688,88.727,201.413,85.451,197.372,85.451 M197.372,97.516
					c-2.623,0-4.749-2.126-4.749-4.749c0-2.623,2.126-4.749,4.749-4.749c2.623,0,4.749,2.126,4.749,4.749
					C202.121,95.39,199.995,97.516,197.372,97.516"/>
			</g>
			<g id="XMLID_00000102532196937151216800000013906629859605907849_">
				<path style="fill:#FFFFFF;" d="M206.687,85.162c0,0.944-0.765,1.71-1.709,1.71c-0.945,0-1.71-0.766-1.71-1.71
					c0-0.944,0.765-1.71,1.71-1.71C205.921,83.453,206.687,84.218,206.687,85.162"/>
			</g>
		</g>
	</g>
</g>
<g id="Icon_Video">
	<path style="opacity:0.1;" d="M288.964,299.778l-6.277-13.572c-1.149-2.484,0.822-5.28,3.548-5.033l14.892,1.35l14.892,1.35
		c2.725,0.247,4.161,3.352,2.585,5.589l-8.615,12.222l-8.615,12.222c-1.577,2.237-4.984,1.928-6.132-0.556L288.964,299.778z"/>
	<path style="fill:#455A64;" d="M281.134,291.949l-6.277-13.572c-1.149-2.484,0.822-5.28,3.548-5.033l14.892,1.35l14.892,1.35
		c2.725,0.247,4.161,3.352,2.585,5.589l-8.615,12.222l-8.615,12.222c-1.577,2.237-4.984,1.928-6.132-0.556L281.134,291.949z"/>
</g>
<g id="Message">
	<g>
		<path style="fill:#FF725E;" d="M83.944,282.91l-58.351-14.943c-1.739-0.445-2.788-2.217-2.343-3.956l10.466-40.87
			c0.445-1.739,2.216-2.788,3.956-2.343l58.351,14.943c1.739,0.445,2.788,2.217,2.343,3.956L87.9,280.567
			C87.455,282.307,85.684,283.356,83.944,282.91z"/>
		<g>
			<g>
				<path style="fill:#263238;" d="M94.961,241.127c0.007,0.016-0.229,0.139-0.685,0.356c-0.503,0.233-1.171,0.541-2.005,0.928
					c-1.802,0.807-4.322,1.937-7.414,3.322c-3.154,1.392-6.885,3.039-11.023,4.866c-2.078,0.911-4.258,1.867-6.516,2.857
					c-1.131,0.494-2.282,0.997-3.449,1.507c-1.219,0.531-2.631,0.663-3.958,0.339c-1.329-0.317-2.526-1.081-3.365-2.112
					c-0.779-1.012-1.547-2.01-2.301-2.99c-1.498-1.96-2.943-3.851-4.321-5.655c-2.738-3.602-5.206-6.849-7.292-9.593
					c-2.036-2.709-3.695-4.917-4.881-6.495c-0.544-0.742-0.978-1.334-1.306-1.782c-0.294-0.411-0.441-0.632-0.427-0.643
					c0.014-0.011,0.19,0.189,0.511,0.579c0.347,0.432,0.808,1.005,1.383,1.722c1.218,1.554,2.921,3.727,5.012,6.394
					c2.112,2.725,4.61,5.949,7.381,9.525c1.386,1.798,2.839,3.683,4.345,5.636c0.753,0.974,1.519,1.966,2.296,2.972
					c0.771,0.945,1.868,1.644,3.087,1.935c2.524,0.72,4.802-0.948,7.082-1.808c2.263-0.981,4.446-1.927,6.528-2.829
					c4.155-1.788,7.901-3.401,11.068-4.764c3.12-1.323,5.663-2.4,7.48-3.171c0.851-0.349,1.531-0.628,2.045-0.838
					C94.704,241.2,94.954,241.111,94.961,241.127z"/>
			</g>
			<g>
				<path style="fill:#263238;" d="M53.084,248.271c0.07,0.126-5.381,3.309-12.174,7.11c-6.795,3.802-12.359,6.781-12.43,6.656
					c-0.07-0.125,5.38-3.308,12.175-7.11C47.449,251.126,53.014,248.146,53.084,248.271z"/>
			</g>
			<g>
				<path style="fill:#263238;" d="M69.085,252.369c0.126-0.07,3.309,5.381,7.11,12.174c3.802,6.796,6.781,12.359,6.656,12.43
					c-0.125,0.07-3.308-5.38-7.11-12.175C71.939,258.004,68.959,252.439,69.085,252.369z"/>
			</g>
		</g>
	</g>
</g>
<g id="Planes">
	<g>
		<g>
			<polygon style="fill:#FFFFFF;" points="437.777,273.519 475.683,217.049 405.93,219.016 416.911,237.57 413.909,250.774 
				426.306,254.202 			"/>
			<polygon style="opacity:0.3;" points="416.911,237.57 475.683,217.049 426.306,254.202 413.91,250.774 			"/>
			<g>
				<line x1="475.683" y1="217.049" x2="413.91" y2="250.774"/>
				<g>
					<path style="fill:#263238;" d="M413.91,250.774c-0.069-0.126,13.705-7.779,30.76-17.09
						c17.062-9.315,30.944-16.761,31.013-16.635c0.069,0.126-13.702,7.777-30.763,17.092
						C427.864,243.452,413.978,250.9,413.91,250.774z"/>
				</g>
			</g>
			<g>
				<path style="fill:#263238;" d="M426.306,254.202c-0.005-0.007,0.075-0.079,0.237-0.212c0.186-0.148,0.425-0.34,0.726-0.581
					c0.673-0.523,1.619-1.258,2.824-2.193c2.494-1.908,6.056-4.632,10.445-7.99c8.876-6.726,21.095-15.986,34.601-26.222
					l0.243,0.454c-0.066,0.023-0.137,0.048-0.208,0.072c-16.063,5.57-30.602,10.611-41.165,14.273
					c-5.25,1.794-9.51,3.249-12.494,4.269c-1.453,0.485-2.594,0.865-3.405,1.136c-0.369,0.117-0.663,0.211-0.89,0.283
					c-0.201,0.061-0.306,0.088-0.309,0.079c-0.003-0.008,0.096-0.052,0.292-0.13c0.223-0.085,0.511-0.194,0.873-0.332
					c0.804-0.293,1.934-0.704,3.373-1.228c2.971-1.057,7.212-2.565,12.439-4.425c10.549-3.699,25.071-8.791,41.114-14.417
					c0.071-0.025,0.142-0.05,0.208-0.072c0.136-0.048,0.284,0.024,0.332,0.16c0.038,0.109-0.001,0.228-0.089,0.294
					c-13.542,10.188-25.794,19.405-34.693,26.099c-4.432,3.303-8.027,5.982-10.545,7.859c-1.23,0.902-2.195,1.611-2.882,2.115
					c-0.314,0.224-0.564,0.402-0.757,0.54C426.402,254.152,426.311,254.21,426.306,254.202z"/>
			</g>
		</g>
		<g>
			<path style="fill:#263238;" d="M437.777,273.519c0,0.008-0.067-0.097-0.198-0.308c-0.141-0.231-0.333-0.546-0.582-0.954
				c-0.527-0.87-1.287-2.126-2.269-3.749c-2.002-3.327-4.906-8.152-8.56-14.223l0.095,0.073c-3.675-1.006-7.855-2.15-12.405-3.396
				l-0.179-0.049l0.041-0.182c0.909-4.035,1.913-8.49,2.976-13.209l0.025,0.161c-3.359-5.661-7.077-11.925-11.003-18.541
				l-0.213-0.36l0.418-0.012c10.425-0.298,21.813-0.624,33.664-0.964c12.743-0.354,24.951-0.693,36.089-1.002l0.475-0.013
				l-0.266,0.393c-11.146,16.508-20.677,30.623-27.434,40.631c-3.357,4.953-6.025,8.888-7.866,11.605
				c-0.903,1.326-1.603,2.354-2.089,3.068c-0.229,0.332-0.406,0.589-0.537,0.78C437.838,273.441,437.777,273.526,437.777,273.519
				c0-0.007,0.062-0.105,0.183-0.292c0.132-0.201,0.309-0.471,0.537-0.821c0.485-0.733,1.182-1.786,2.082-3.146
				c1.826-2.747,4.472-6.727,7.801-11.736c6.675-10.003,16.09-24.111,27.1-40.611l0.21,0.38
				c-11.137,0.319-23.344,0.669-36.088,1.034c-11.851,0.329-23.239,0.646-33.664,0.935l0.205-0.372
				c3.91,6.626,7.612,12.898,10.958,18.567l0.045,0.076l-0.02,0.085c-1.081,4.715-2.102,9.165-3.026,13.197l-0.138-0.231
				c4.544,1.27,8.717,2.436,12.387,3.461l0.063,0.018l0.033,0.055c3.556,6.07,6.382,10.894,8.331,14.221
				c0.965,1.656,1.712,2.939,2.23,3.827c0.247,0.427,0.437,0.756,0.577,0.998C437.711,273.392,437.777,273.519,437.777,273.519z"/>
		</g>
	</g>
	<g>
		<g>
			<polygon style="fill:#FFFFFF;" points="108.135,196.433 49.993,109.817 156.983,112.834 140.14,141.294 144.744,161.546 
				125.729,166.805 			"/>
			<polygon style="opacity:0.3;" points="140.14,141.294 49.993,109.817 125.729,166.805 144.744,161.546 			"/>
			<g>
				<line x1="49.993" y1="109.817" x2="144.744" y2="161.546"/>
				<g>
					<path style="fill:#263238;" d="M144.744,161.545c-0.069,0.126-21.337-11.352-47.498-25.634
						c-26.17-14.287-47.322-25.968-47.253-26.094c0.069-0.126,21.333,11.35,47.502,25.637
						C123.656,149.736,144.813,161.419,144.744,161.545z"/>
				</g>
			</g>
			<g>
				<path style="fill:#263238;" d="M125.729,166.805c0,0-0.142-0.085-0.404-0.272c-0.278-0.202-0.661-0.48-1.154-0.839
					c-1.026-0.761-2.507-1.858-4.405-3.265c-3.831-2.868-9.343-6.995-16.148-12.089c-13.623-10.261-32.417-24.418-53.19-40.065
					c-0.115-0.087-0.138-0.25-0.051-0.365c0.07-0.093,0.19-0.125,0.294-0.089c0.1,0.035,0.21,0.073,0.319,0.111
					c24.626,8.618,46.917,16.42,63.076,22.075c8.046,2.843,14.564,5.145,19.095,6.746c2.233,0.801,3.975,1.426,5.183,1.859
					c0.574,0.212,1.02,0.376,1.344,0.496c0.302,0.115,0.452,0.186,0.452,0.186s-0.162-0.037-0.469-0.135
					c-0.327-0.107-0.779-0.256-1.36-0.447c-1.215-0.412-2.968-1.006-5.215-1.767c-4.544-1.563-11.08-3.813-19.149-6.59
					c-16.172-5.618-38.481-13.369-63.127-21.931c-0.109-0.038-0.218-0.076-0.319-0.111l0.243-0.454
					c20.737,15.695,39.498,29.895,53.098,40.188c6.763,5.15,12.241,9.322,16.048,12.221c1.873,1.441,3.334,2.564,4.347,3.343
					c0.48,0.376,0.852,0.668,1.122,0.88C125.609,166.691,125.729,166.805,125.729,166.805z"/>
			</g>
		</g>
		<g>
			<path style="fill:#263238;" d="M108.135,196.433c0,0,0.101-0.186,0.3-0.53c0.206-0.354,0.501-0.858,0.886-1.519
				c0.787-1.341,1.938-3.304,3.43-5.849c2.994-5.086,7.351-12.489,12.839-21.813l0.033-0.055l0.063-0.018
				c5.628-1.567,12.032-3.35,19.005-5.292l-0.138,0.231c-1.414-6.184-2.975-13.012-4.628-20.246l-0.02-0.085l0.045-0.076
				c5.135-8.692,10.817-18.312,16.82-28.473l0.205,0.372c-15.989-0.447-33.458-0.934-51.636-1.442
				c-19.547-0.557-38.272-1.091-55.353-1.577l0.21-0.38c16.931,25.32,31.405,46.967,41.656,62.296
				c5.123,7.681,9.189,13.776,11.983,17.966c1.39,2.09,2.462,3.701,3.196,4.805c0.357,0.541,0.631,0.956,0.824,1.248
				C108.04,196.279,108.135,196.433,108.135,196.433s-0.094-0.126-0.279-0.395c-0.193-0.283-0.467-0.684-0.824-1.207
				c-0.736-1.086-1.81-2.671-3.202-4.727c-2.81-4.159-6.898-10.21-12.049-17.835c-10.333-15.335-24.924-36.989-41.991-62.316
				l-0.265-0.394L50,109.573c17.082,0.477,35.807,0.999,55.354,1.545c18.178,0.518,35.646,1.015,51.635,1.471l0.418,0.012
				l-0.213,0.36c-6.018,10.151-11.716,19.762-16.865,28.446l0.025-0.161c1.636,7.238,3.18,14.07,4.579,20.257l0.041,0.182
				l-0.179,0.049c-6.98,1.918-13.39,3.678-19.023,5.226l0.095-0.073c-5.586,9.325-10.021,16.729-13.069,21.815
				c-1.51,2.511-2.674,4.448-3.47,5.771c-0.388,0.641-0.684,1.132-0.892,1.475C108.237,196.277,108.135,196.433,108.135,196.433z"/>
		</g>
	</g>
	<g>
		<g>
			<g>
				<polygon style="fill:#FFFFFF;" points="79.111,312.452 29.926,378.097 114.061,380.088 101.996,357.054 106.436,341.339 
					91.72,336.435 				"/>
				<polygon style="opacity:0.3;" points="101.996,357.054 29.926,378.097 91.72,336.435 106.436,341.339 				"/>
				<g>
					<line x1="29.926" y1="378.097" x2="106.436" y2="341.339"/>
					<g>
						<path style="fill:#263238;" d="M106.436,341.339c0.062,0.13-17.016,8.464-38.14,18.613
							c-21.132,10.152-38.307,18.275-38.37,18.145c-0.062-0.129,17.012-8.462,38.144-18.615
							C89.195,349.334,106.374,341.21,106.436,341.339z"/>
					</g>
				</g>
				<g>
					<path style="fill:#263238;" d="M91.719,336.435c0.005,0.007-0.097,0.087-0.301,0.236c-0.227,0.161-0.529,0.376-0.914,0.65
						c-0.835,0.578-2.024,1.403-3.544,2.457c-3.115,2.131-7.58,5.187-13.09,8.957c-11.104,7.537-26.407,17.925-43.323,29.406
						l-0.219-0.466c0.08-0.023,0.168-0.049,0.255-0.074c19.699-5.712,37.529-10.881,50.468-14.633
						c6.443-1.842,11.667-3.335,15.31-4.377c1.789-0.5,3.188-0.89,4.17-1.165c0.458-0.122,0.818-0.218,1.088-0.29
						c0.246-0.063,0.373-0.09,0.376-0.082c0.003,0.009-0.12,0.054-0.361,0.133c-0.266,0.084-0.622,0.197-1.074,0.34
						c-0.975,0.296-2.366,0.719-4.142,1.258c-3.632,1.079-8.84,2.627-15.264,4.536c-12.928,3.789-30.743,9.01-50.425,14.779
						c-0.087,0.025-0.175,0.051-0.255,0.074c-0.138,0.04-0.283-0.039-0.323-0.177c-0.033-0.111,0.013-0.227,0.104-0.289
						c16.949-11.432,32.283-21.775,43.409-29.28c5.548-3.712,10.046-6.721,13.182-8.82c1.543-1.019,2.751-1.816,3.598-2.376
						c0.397-0.256,0.709-0.456,0.943-0.607C91.602,336.492,91.714,336.427,91.719,336.435z"/>
				</g>
			</g>
			<g>
				<path style="fill:#263238;" d="M79.111,312.452c0,0,0.074,0.124,0.218,0.388c0.152,0.283,0.365,0.677,0.641,1.19
					c0.575,1.076,1.411,2.639,2.494,4.665c2.194,4.125,5.383,10.119,9.397,17.664l-0.091-0.078
					c4.362,1.443,9.324,3.085,14.727,4.872l0.176,0.058l-0.05,0.18c-1.349,4.803-2.838,10.105-4.416,15.722l-0.017-0.162
					c3.691,7.029,7.775,14.806,12.088,23.022l0.195,0.37l-0.419-0.01c-12.574-0.293-26.311-0.613-40.606-0.947
					c-15.371-0.369-30.096-0.723-43.529-1.046l-0.475-0.011l0.285-0.379c14.446-19.19,26.797-35.597,35.548-47.222
					c4.354-5.766,7.813-10.346,10.194-13.499c1.175-1.55,2.082-2.746,2.708-3.573c0.299-0.391,0.529-0.692,0.696-0.91
					C79.032,312.544,79.111,312.452,79.111,312.452s-0.081,0.12-0.238,0.336c-0.167,0.228-0.398,0.542-0.698,0.951
					c-0.626,0.844-1.531,2.067-2.705,3.651c-2.368,3.185-5.806,7.81-10.136,13.634c-8.669,11.625-20.904,28.031-35.213,47.22
					l-0.19-0.39c13.434,0.313,28.159,0.656,43.53,1.014c14.295,0.343,28.031,0.673,40.605,0.975l-0.224,0.36
					c-4.297-8.224-8.366-16.01-12.042-23.046l-0.041-0.078l0.024-0.084c1.595-5.612,3.101-10.909,4.465-15.708l0.126,0.238
					c-5.395-1.811-10.35-3.474-14.706-4.937l-0.062-0.021l-0.03-0.057c-3.916-7.54-7.028-13.529-9.168-17.65
					c-1.064-2.059-1.885-3.647-2.451-4.741c-0.273-0.532-0.483-0.94-0.633-1.233C79.183,312.605,79.111,312.452,79.111,312.452z"/>
			</g>
		</g>
	</g>
</g>
<g id="Character_00000072968661328816607320000016997763874017381031_">
	<g>
		<g>
			<g>
				<g>
					<path style="fill:#FFBF9D;" d="M313.996,349.909l-6.185,0.267l-22.267,48.336l-35.217,17.556l1.677,18.13
						c0,0,43.36-7.998,54.167-14.051c10.807-6.052,24.594-45.363,24.594-45.363c0.069,0.28-14.65-24.875-14.65-24.875"/>
				</g>
			</g>
			<g>
				<g>
					<g>
						<g>
							<path style="fill:#FFBF9D;" d="M252.377,394.094l-4.513-4.745c-0.87-0.559-1.888-0.842-2.921-0.811l-14.304,0.435
								c-2.698,0.265-5.131,1.739-6.617,4.007l-5.201,8.852c0,0-3.496,6.057-3.051,7.529c0.672,2.222,3.017,1.769,3.017,1.769
								s0.495,2.798,1.433,3.368c1.564,0.949,3.474,0.224,3.474,0.224c0.52,1.074,1.626,1.789,2.816,1.705
								c0.237-0.017,0.486-0.06,0.742-0.137c1.699-0.514,2.463-3.802,2.463-3.802l7.252-1.343c0,0,10.415,6.963,14.086,11.525
								c3.671,4.562,13.286,1.076,13.286,1.076l3.598-17.2L252.377,394.094z"/>
						</g>
					</g>
				</g>
				<g>
					<g>
						<g>
							<g>
								<path style="fill:#FF9A6C;" d="M241.835,396.147c0.01,0.1-1.153,0.325-3.128,0.521c-1.972,0.219-4.763,0.299-7.904,0.705
									l0.34-0.249c-0.512,1.119-1.14,2.277-1.858,3.425c-2.222,3.553-4.839,6.325-6.876,8.135
									c-2.05,1.812-3.529,2.654-3.588,2.563c-0.082-0.114,1.249-1.13,3.152-3.028c1.893-1.898,4.381-4.683,6.548-8.148
									c0.7-1.119,1.32-2.239,1.832-3.312l0.106-0.223l0.234-0.026c3.228-0.365,6.009-0.327,7.981-0.394
									C240.647,396.072,241.824,396.04,241.835,396.147z"/>
							</g>
						</g>
					</g>
				</g>
				<g>
					<g>
						<g>
							<g>
								<path style="fill:#FF9A6C;" d="M242.165,402.97c0.023,0.092-0.961,0.465-2.695,0.718c-1.726,0.253-4.222,0.33-6.997-0.244
									l0.509-0.289c-0.288,0.846-0.627,1.724-1.045,2.594c-1.512,3.168-3.644,5.591-5.376,7.063
									c-1.737,1.485-3.017,2.104-3.071,2.014c-0.08-0.119,1.06-0.921,2.638-2.482c1.577-1.552,3.543-3.941,4.995-6.984
									c0.401-0.837,0.734-1.677,1.025-2.486l0.134-0.373l0.376,0.084C238.012,403.778,242.142,402.705,242.165,402.97z"/>
							</g>
						</g>
					</g>
				</g>
				<g>
					<g>
						<g>
							<g>
								<path style="fill:#FFBF9D;" d="M260.325,406.499c-4.252-1.977-8.504-3.953-12.756-5.93c-1.767-0.821-3.606-1.66-5.554-1.651
									c-2.096,0.01-4.049,0.997-5.911,1.961c-2.288,1.184-4.576,2.369-6.864,3.553c-0.373,0.193-0.778,0.423-0.91,0.821
									c-0.173,0.522,0.205,1.056,0.592,1.447c3.428,3.472,9.589,3.724,13.29,0.544c1.101,2.995,2.241,6.059,4.303,8.495
									c2.062,2.436,5.267,4.159,8.406,3.583"/>
							</g>
						</g>
					</g>
					<g>
						<g>
							<g>
								<g>
									<path style="fill:#FF9A6C;" d="M254.919,419.323c0.004,0.021-0.112,0.059-0.343,0.112c-0.23,0.059-0.58,0.105-1.039,0.118
										c-0.912,0.024-2.301-0.151-3.841-0.932c-1.534-0.761-3.204-2.139-4.52-4.121c-1.347-1.966-2.35-4.448-3.341-7.116
										l0.637,0.165c-1.881,1.657-4.624,2.54-7.428,2.323c-1.402-0.105-2.825-0.478-4.141-1.158
										c-0.645-0.362-1.28-0.764-1.841-1.275c-0.276-0.256-0.571-0.488-0.824-0.842c-0.239-0.327-0.499-0.814-0.364-1.389
										c0.115-0.474,0.477-0.775,0.763-0.953c0.304-0.188,0.564-0.305,0.831-0.448c0.534-0.276,1.064-0.55,1.591-0.822
										c1.053-0.543,2.091-1.077,3.112-1.603c2.041-1.012,3.973-2.196,6.149-2.68c2.204-0.533,4.356,0.152,6.053,0.917
										c1.726,0.786,3.279,1.553,4.724,2.24c2.757,1.346,5.044,2.462,6.79,3.315c1.594,0.801,2.464,1.27,2.438,1.327
										c-0.026,0.057-0.946-0.305-2.586-1.009c-1.777-0.786-4.103-1.814-6.91-3.055c-1.466-0.658-3.055-1.37-4.75-2.131
										c-1.691-0.721-3.611-1.291-5.578-0.793c-1.968,0.451-3.875,1.618-5.923,2.654c-1.019,0.53-2.055,1.069-3.105,1.615
										c-0.526,0.273-1.056,0.548-1.589,0.824c-0.542,0.276-1.106,0.546-1.133,0.819c-0.109,0.331,0.383,0.917,0.908,1.339
										c0.503,0.461,1.079,0.826,1.663,1.158c1.195,0.622,2.5,0.973,3.791,1.078c2.585,0.216,5.111-0.575,6.838-2.058l0.443-0.38
										l0.194,0.546c0.954,2.679,1.892,5.11,3.141,7.028c1.223,1.934,2.753,3.274,4.19,4.066
										C252.861,419.807,254.953,419.163,254.919,419.323z"/>
								</g>
							</g>
						</g>
					</g>
				</g>
			</g>
			<g>
				<g>
					<g>
						<g>
							<g>
								<path style="fill:#263238;" d="M431.236,244.947c0.776-9.703,2.962-19.279,3.249-29.009
									c0.287-9.73-1.582-20.012-7.881-27.434c-6.299-7.422-17.878-10.877-26.181-5.796l-2.186,8.155
									c0.577,37.659-2.431,75.684-1.854,113.343c0.076,4.947,3.766,9.672,5.704,14.223c1.938,4.552,6.182,8.488,11.129,8.52
									c6.473,0.042,11.147-6.207,13.568-12.21C435.561,292.975,429.365,268.338,431.236,244.947z"/>
							</g>
						</g>
					</g>
				</g>
				<g>
					<g>
						<g>
							<g>
								<path style="fill:#FF725E;" d="M411.297,193.008c-1.248-2.496-2.534-5.03-4.483-7.028c-1.949-1.997-4.701-3.407-7.472-3.073
									c-1.304,0.157-2.663,0.8-3.18,2.008c-0.516,1.208,0.296,2.923,1.609,2.904l0.262,0.257c2.733,2.77,5.521,5.485,8.362,8.145
									c0.715,0.669,1.458,1.351,2.373,1.701c0.916,0.35,2.055,0.294,2.754-0.393C412.677,196.393,412.021,194.457,411.297,193.008
									z"/>
							</g>
						</g>
					</g>
				</g>
				<g>
					<g>
						<g>
							<g>
								<path style="fill:#263238;" d="M416.137,202.915c-8.875-12.486-21.41-20.179-36.676-21.469
									c-8.612-0.728-12.302,0.822-18.624,2.076c-6.323,1.253-12.151,4.204-16.212,9.21c-4.823,5.946-8.993,12.687-10.341,20.224
									c-1.383,7.742-1.306,15.414-0.249,21.803c1.283,7.759,5.731,19.79,9.908,26.454l13.125,2.506
									c10.969,1.121,22.092,2.238,32.974,0.457c10.882-1.781,21.681-6.838,28.055-15.836
									C426.95,235.838,425.013,215.401,416.137,202.915z"/>
							</g>
						</g>
					</g>
				</g>
				<g>
					<g>
						<g>
							<g>
								<path style="fill:#FFBF9D;" d="M398.432,201.582l-25.825-12.351l-6.988,0.335c-15.605-1.004-27.532,15.472-28.492,28.1
									c-1.066,14.03-1.815,31.201-0.287,41.7c3.073,21.11,20.712,24.047,20.712,24.047s-1.116,11.063-1.723,18.04l40.832-0.176
									l8.302-92.093C405.09,205.338,402.252,202.035,398.432,201.582z"/>
							</g>
						</g>
					</g>
					<g>
						<g>
							<g>
								<g>
									<g>
										<path style="fill:#FF9A6C;" d="M368.379,256.614c-0.07-1.106-0.614-2.117-1.346-2.836
											c-1.465-1.438-3.728-1.721-5.47-0.686c-1.742,1.035-2.855,3.325-2.689,5.535l0,0c0.846,1.347,2.217,2.311,3.789,2.555
											c0.245,0.038,0.491,0.063,0.739,0.074c1.202,0.05,2.449-0.272,3.425-1.094
											C367.803,259.341,368.465,257.98,368.379,256.614z"/>
									</g>
								</g>
							</g>
						</g>
					</g>
					<g>
						<g>
							<g>
								<g>
									<g>
										<g>
											<g>
												<g>
													<g>
														<g>
															<g>
																<g>
																	<g>
																		<g>
																			<g>
																				<g>
																					<g>
																						<g>
																							<g>
																								<g>
																									<g>
																										<g>
																											<g>
																												<path style="fill:#263238;" d="M341.523,236.847c-0.069,1.427,1.082,2.661,2.57,2.76
																													c1.485,0.099,2.747-0.973,2.817-2.399c0.069-1.426-1.082-2.662-2.567-2.761
																													C342.854,234.346,341.592,235.421,341.523,236.847z"/>
																											</g>
																										</g>
																									</g>
																								</g>
																							</g>
																						</g>
																					</g>
																				</g>
																			</g>
																		</g>
																	</g>
																</g>
															</g>
														</g>
													</g>
												</g>
											</g>
										</g>
									</g>
								</g>
								<g>
									<g>
										<g>
											<g>
												<g>
													<g>
														<g>
															<g>
																<g>
																	<g>
																		<g>
																			<g>
																				<g>
																					<g>
																						<g>
																							<g>
																								<g>
																									<g>
																										<g>
																											<g>
																												<g>
																													<path style="fill:#263238;" d="M341.406,225.007c0.33,0.357,2.397-1.131,5.305-1.086
																														c2.904,0.004,5.019,1.527,5.339,1.175c0.157-0.155-0.177-0.795-1.096-1.484
																														c-0.906-0.685-2.458-1.36-4.269-1.376c-1.811-0.013-3.343,0.634-4.228,1.305
																														C341.555,224.213,341.243,224.847,341.406,225.007z"/>
																												</g>
																											</g>
																										</g>
																									</g>
																								</g>
																							</g>
																						</g>
																					</g>
																				</g>
																			</g>
																		</g>
																	</g>
																</g>
															</g>
														</g>
													</g>
												</g>
											</g>
										</g>
									</g>
								</g>
								<g>
									<g>
										<g>
											<g>
												<g>
													<g>
														<g>
															<g>
																<g>
																	<g>
																		<g>
																			<g>
																				<g>
																					<g>
																						<g>
																							<g>
																								<g>
																									<g>
																										<g>
																											<g>
																												<path style="fill:#263238;" d="M358.479,248.987c0.016-0.165-1.787-0.5-4.711-0.913
																													c-0.741-0.087-1.442-0.243-1.561-0.751c-0.168-0.539,0.153-1.335,0.524-2.194
																													c0.721-1.788,1.476-3.661,2.269-5.625c3.152-8.009,5.446-14.599,5.122-14.722
																													c-0.324-0.125-3.143,6.267-6.296,14.276c-0.759,1.975-1.486,3.858-2.177,5.659
																													c-0.292,0.84-0.787,1.791-0.423,2.909c0.193,0.558,0.733,0.967,1.207,1.102
																													c0.474,0.151,0.891,0.165,1.259,0.192C356.637,249.116,358.465,249.152,358.479,248.987z"/>
																											</g>
																										</g>
																									</g>
																								</g>
																							</g>
																						</g>
																					</g>
																				</g>
																			</g>
																		</g>
																	</g>
																</g>
															</g>
														</g>
													</g>
												</g>
											</g>
										</g>
									</g>
								</g>
								<g>
									<g>
										<g>
											<g>
												<g>
													<g>
														<g>
															<g>
																<g>
																	<g>
																		<g>
																			<g>
																				<g>
																					<g>
																						<g>
																							<g>
																								<g>
																									<g>
																										<g>
																											<path style="fill:#FF9A6C;" d="M357.52,283.388c0,0,14.161,1.097,28.311-7.161
																												c0,0-7.705,14.505-28.765,12.261L357.52,283.388z"/>
																										</g>
																									</g>
																								</g>
																							</g>
																						</g>
																					</g>
																				</g>
																			</g>
																		</g>
																	</g>
																</g>
															</g>
														</g>
													</g>
												</g>
											</g>
										</g>
									</g>
								</g>
								<g>
									<g>
										<g>
											<g>
												<g>
													<g>
														<g>
															<g>
																<g>
																	<g>
																		<g>
																			<g>
																				<g>
																					<g>
																						<g>
																							<g>
																								<g>
																									<g>
																										<g>
																											<g>
																												<path style="fill:#263238;" d="M367.009,251.109c-0.472-0.034-0.519,3.122-3.25,5.327
																													c-2.725,2.212-6.084,1.815-6.115,2.255c-0.047,0.198,0.741,0.623,2.16,0.68
																													c1.392,0.066,3.432-0.356,5.102-1.704c1.666-1.352,2.398-3.176,2.523-4.469
																													C367.567,251.88,367.225,251.093,367.009,251.109z"/>
																											</g>
																										</g>
																									</g>
																								</g>
																							</g>
																						</g>
																					</g>
																				</g>
																			</g>
																		</g>
																	</g>
																</g>
															</g>
														</g>
													</g>
												</g>
											</g>
										</g>
									</g>
								</g>
								<g>
									<g>
										<g>
											<g>
												<g>
													<g>
														<g>
															<g>
																<g>
																	<g>
																		<g>
																			<g>
																				<g>
																					<g>
																						<g>
																							<g>
																								<g>
																									<g>
																										<g>
																											<g>
																												<g>
																													<g>
																														<path style="fill:#263238;" d="M343.081,214.929c0.479,0.716,2.712,0.27,5.31,0.52
																															c2.606,0.166,4.745,0.963,5.325,0.331c0.259-0.309-0.017-1.005-0.909-1.731
																															c-0.879-0.722-2.406-1.4-4.195-1.545c-1.788-0.141-3.398,0.285-4.374,0.859
																															C343.248,213.939,342.873,214.583,343.081,214.929z"/>
																													</g>
																												</g>
																											</g>
																										</g>
																									</g>
																								</g>
																							</g>
																						</g>
																					</g>
																				</g>
																			</g>
																		</g>
																	</g>
																</g>
															</g>
														</g>
													</g>
												</g>
											</g>
										</g>
									</g>
								</g>
								<g>
									<g>
										<g>
											<g>
												<g>
													<g>
														<g>
															<g>
																<g>
																	<g>
																		<g>
																			<g>
																				<g>
																					<g>
																						<g>
																							<g>
																								<g>
																									<g>
																										<g>
																											<g>
																												<path style="fill:#263238;" d="M371.189,237.627c-0.022,1.428-1.248,2.587-2.739,2.591
																													c-1.488,0.005-2.681-1.145-2.659-2.573c0.022-1.428,1.249-2.588,2.736-2.593
																													C370.018,235.047,371.21,236.2,371.189,237.627z"/>
																											</g>
																										</g>
																									</g>
																								</g>
																							</g>
																						</g>
																					</g>
																				</g>
																			</g>
																		</g>
																	</g>
																</g>
															</g>
														</g>
													</g>
												</g>
											</g>
										</g>
									</g>
								</g>
								<g>
									<g>
										<g>
											<g>
												<g>
													<g>
														<g>
															<g>
																<g>
																	<g>
																		<g>
																			<g>
																				<g>
																					<g>
																						<g>
																							<g>
																								<g>
																									<g>
																										<g>
																											<g>
																												<g>
																													<path style="fill:#263238;" d="M380.682,226.546c-0.352,0.335-2.321-1.281-5.225-1.42
																														c-2.899-0.18-5.106,1.207-5.402,0.835c-0.147-0.165,0.226-0.783,1.188-1.412
																														c0.947-0.626,2.539-1.202,4.347-1.104c1.809,0.102,3.297,0.844,4.137,1.57
																														C380.584,225.745,380.855,226.397,380.682,226.546z"/>
																												</g>
																											</g>
																										</g>
																									</g>
																								</g>
																							</g>
																						</g>
																					</g>
																				</g>
																			</g>
																		</g>
																	</g>
																</g>
															</g>
														</g>
													</g>
												</g>
											</g>
										</g>
									</g>
								</g>
								<g>
									<g>
										<g>
											<g>
												<g>
													<g>
														<g>
															<g>
																<g>
																	<g>
																		<g>
																			<g>
																				<g>
																					<g>
																						<g>
																							<g>
																								<g>
																									<g>
																										<g>
																											<g>
																												<g>
																													<g>
																														<path style="fill:#263238;" d="M379.57,217.147c-0.605,0.63-2.811-0.167-5.503-0.335
																															c-2.687-0.252-4.998,0.192-5.488-0.524c-0.214-0.347,0.179-0.989,1.208-1.563
																															c1.013-0.572,2.682-0.998,4.531-0.855c1.848,0.146,3.422,0.824,4.325,1.547
																															C379.561,216.143,379.839,216.838,379.57,217.147z"/>
																													</g>
																												</g>
																											</g>
																										</g>
																									</g>
																								</g>
																							</g>
																						</g>
																					</g>
																				</g>
																			</g>
																		</g>
																	</g>
																</g>
															</g>
														</g>
													</g>
												</g>
											</g>
										</g>
									</g>
								</g>
							</g>
						</g>
					</g>
					<g>
						<g>
							<g>
								<g>
									<g>
										<g>
											<g>
												<g>
													<g>
														<g>
															<g>
																<g>
																	<g>
																		<g>
																			<g>
																				<g>
																					<g>
																						<g>
																							<g>
																								<g>
																									<g>
																										<path style="fill:#FFBF9D;" d="M398.965,244.209c0.024-1.569,1.885-5.244,3.438-5.466
																											c4.146-0.591,11.599-0.163,11.533,10.346c-0.091,14.365-14.495,11.31-14.518,10.898
																											C399.4,259.665,398.882,249.626,398.965,244.209z"/>
																									</g>
																								</g>
																							</g>
																						</g>
																					</g>
																				</g>
																			</g>
																		</g>
																	</g>
																</g>
															</g>
														</g>
													</g>
												</g>
											</g>
										</g>
									</g>
								</g>
							</g>
						</g>
						<g>
							<g>
								<g>
									<g>
										<g>
											<g>
												<g>
													<g>
														<g>
															<g>
																<g>
																	<g>
																		<g>
																			<g>
																				<g>
																					<g>
																						<g>
																							<g>
																								<g>
																									<g>
																										<g>
																											<path style="fill:#FF9A6C;" d="M403.414,254.765c0.063-0.046,0.249,0.177,0.67,0.373
																												c0.412,0.191,1.12,0.327,1.871,0.05c1.521-0.547,2.814-2.948,2.9-5.537
																												c0.045-1.308-0.22-2.554-0.677-3.588c-0.432-1.054-1.107-1.792-1.871-1.932
																												c-0.759-0.181-1.302,0.273-1.481,0.675c-0.195,0.401-0.105,0.689-0.182,0.712
																												c-0.04,0.036-0.307-0.242-0.188-0.834c0.061-0.285,0.232-0.623,0.572-0.898
																												c0.346-0.278,0.854-0.417,1.386-0.357c1.108,0.084,2.098,1.109,2.6,2.244
																												c0.562,1.14,0.892,2.541,0.842,4.009c-0.11,2.894-1.609,5.593-3.69,6.18
																												c-1.011,0.257-1.853-0.053-2.286-0.395C403.437,255.113,403.364,254.79,403.414,254.765z"/>
																										</g>
																									</g>
																								</g>
																							</g>
																						</g>
																					</g>
																				</g>
																			</g>
																		</g>
																	</g>
																</g>
															</g>
														</g>
													</g>
												</g>
											</g>
										</g>
									</g>
								</g>
							</g>
						</g>
					</g>
				</g>
				<g>
					<g>
						<g>
							<g>
								<g>
									<g>
										<path style="fill:#263238;" d="M402.984,238.824l-3.891,3.523c-14.676-16.089-42.797-55.787-41.237-53.429
											c0,0,11.052-3.692,22.588-0.912c11.536,2.78,33.276,10.124,32.002,23.866
											C411.173,225.613,402.984,238.824,402.984,238.824z"/>
									</g>
								</g>
							</g>
						</g>
					</g>
				</g>
				<g>
					<g>
						<g>
							<g>
								<g>
									<path style="fill:#455A64;" d="M423.984,237.076c0.025-0.006-0.032-0.294-0.163-0.842c-0.135-0.546-0.389-1.34-0.822-2.321
										c-0.867-1.951-2.597-4.629-5.522-7.133c-2.875-2.563-6.953-4.771-11.644-6.607c-4.679-1.884-9.992-3.46-15.132-6.092
										c-5.181-2.55-9.741-5.694-13.596-8.876c-3.84-3.21-6.968-6.482-9.384-9.398c-2.416-2.919-4.144-5.461-5.304-7.237
										c-0.531-0.844-0.962-1.529-1.301-2.07c-0.302-0.471-0.471-0.714-0.493-0.702c-0.022,0.012,0.104,0.279,0.364,0.775
										c0.267,0.492,0.641,1.232,1.186,2.147c1.09,1.829,2.762,4.432,5.145,7.415c2.382,2.979,5.498,6.318,9.351,9.589
										c3.868,3.24,8.466,6.436,13.703,9.014c5.208,2.665,10.559,4.23,15.212,6.065c4.673,1.79,8.69,3.909,11.556,6.373
										c2.912,2.407,4.667,4.978,5.6,6.86C423.666,235.933,423.908,237.099,423.984,237.076z"/>
								</g>
							</g>
						</g>
					</g>
				</g>
				<g>
					<g>
						<g>
							<g>
								<g>
									<path style="fill:#455A64;" d="M419.667,239.046c0,0,0.224-1.162-0.343-3.164c-0.535-1.985-2.05-4.736-4.918-7.1
										c-2.836-2.433-7.006-4.102-11.62-5.49c-4.635-1.358-9.652-3.033-14.515-5.714c-4.855-2.662-9.163-5.781-12.67-9.061
										c-3.529-3.259-6.329-6.585-8.461-9.526c-2.163-2.928-3.569-5.526-4.583-7.291c-0.437-0.847-0.793-1.537-1.077-2.085
										c-0.253-0.474-0.398-0.719-0.421-0.708c-0.023,0.01,0.076,0.275,0.287,0.77c0.251,0.566,0.568,1.279,0.956,2.154
										c0.941,1.814,2.288,4.469,4.414,7.461c2.096,3.005,4.882,6.4,8.425,9.722c3.52,3.343,7.867,6.517,12.781,9.211
										c4.911,2.711,10.041,4.4,14.667,5.715c4.609,1.348,8.696,2.934,11.488,5.244c2.833,2.251,4.368,4.873,4.973,6.782
										C419.688,237.889,419.569,239.056,419.667,239.046z"/>
								</g>
							</g>
						</g>
					</g>
				</g>
				<g>
					<g>
						<g>
							<g>
								<g>
									<g>
										<path style="fill:#455A64;" d="M400.868,263.012c-0.007-0.097,1.229-0.173,3.385-0.583c2.144-0.444,5.213-1.53,8.31-3.932
											c3.127-2.361,6.025-6.168,8.208-10.874c2.175-4.71,3.673-10.317,4.222-16.293c0.263-2.986,0.231-5.918-0.102-8.723
											c-0.371-2.8-1.02-5.453-1.846-7.913c-1.722-4.905-4.177-8.966-6.628-12.044c-4.93-6.185-9.207-8.833-9.034-9.022
											c0.019-0.027,0.281,0.135,0.765,0.466c0.473,0.343,1.209,0.806,2.068,1.516c1.753,1.371,4.177,3.536,6.724,6.622
											c2.554,3.071,5.122,7.173,6.928,12.173c0.868,2.507,1.551,5.22,1.943,8.086c0.355,2.869,0.395,5.878,0.125,8.925
											c-0.56,6.082-2.108,11.782-4.375,16.577c-2.274,4.789-5.313,8.668-8.591,11.035c-3.246,2.409-6.444,3.422-8.646,3.762
											c-1.096,0.226-1.98,0.173-2.561,0.231C401.175,263.047,400.868,263.044,400.868,263.012z"/>
									</g>
								</g>
							</g>
						</g>
					</g>
				</g>
			</g>
			<g>
				<g>
					<g>
						<g>
							<g>
								<g>
									<g>
										<g>
											<polygon style="fill:#FFBF9D;" points="356.155,296.507 396.682,292.13 404.097,298.883 375.166,315.89 362.404,322.5 
												349.798,318.672 345.804,311.16 											"/>
										</g>
									</g>
								</g>
							</g>
						</g>
					</g>
					<g>
						<g>
							<g>
								<g>
									<g>
										<g>
											<g>
												<path style="fill:#FF725E;" d="M301.529,345.852c0,0,12.703-24.379,15.848-29.705
													c5.361-9.078,15.365-14.224,15.365-14.224l23.413-5.416c0,0-2.43,11.731,12.141,12.541
													c18.53,1.031,30.041-16.739,30.041-16.739s21.143,2.175,26.981,4.628c5.838,2.453,22.355,9.363,24.777,31.323
													l5.658,35.85l-44.67,3.404l0.618,47.726l21.976,37.604H325.865c1.686,0.452,7.626-24.656,3.731-44.502l-7.357-17.862
													c-2.945-7.15-4.775-14.728-5.209-22.449c-0.285-5.081-0.146-8.927-0.146-8.927S305.426,355.166,301.529,345.852z"/>
											</g>
										</g>
									</g>
								</g>
							</g>
						</g>
						<g>
							<g>
								<g>
									<g>
										<g>
											<g>
												<g>
													<path style="fill:#FFBF9D;" d="M336.724,432.022l74.89-22.479l-0.53-42.028l38.138-2.906
														c0,0-3.043,21.778-3.489,32.944c-0.642,16.06-8.367,38.505-13.534,43.27c-5.167,4.765-97.464,9.944-97.464,9.944
														L336.724,432.022z"/>
												</g>
											</g>
										</g>
									</g>
								</g>
							</g>
							<g>
								<g>
									<g>
										<g>
											<g>
												<g>
													<path style="fill:#FFBF9D;" d="M294.25,445.239c0.618,1.021,1.786,1.628,2.964,1.433
														c0.234-0.039,0.478-0.105,0.726-0.206c1.643-0.671,1.219-4.09,1.219-4.09l7.971-1.943c0,0,11.022,5.957,15.104,10.154
														c4.082,4.198,13.329-0.174,13.329-0.174l1.97-17.462l-15.899-12.286c0,0,0.974,0.73-0.245-1.704
														c-1.22-2.434-5.815-1.122-5.815-1.122c-0.823-1.187-3.907-1.396-3.907-1.396l-12.917,2.511
														c-2.662,0.517-4.946,2.212-6.212,4.609l-4.836,9.151c0,0-2.425,6.507-1.843,7.931c0.877,2.149,3.17,1.478,3.17,1.478
														s0.96,4.08,2.056,4.14C292.18,446.323,294.25,445.239,294.25,445.239L294.25,445.239z"/>
												</g>
											</g>
										</g>
									</g>
								</g>
							</g>
							<g>
								<g>
									<g>
										<g>
											<g>
												<g>
													<g>
														<path style="fill:#FF9A6C;" d="M321.032,430.733c-0.003,0.138-1.749,0.112-4.523,0.448
															c-2.766,0.35-6.572,1.136-10.482,2.814c-1.955,0.831-3.744,1.789-5.302,2.769c-1.506,1.009-3.093,1.865-3.509,3.051
															c-0.209,0.581-0.052,1.143,0.263,1.542c0.307,0.398,0.705,0.645,1.048,0.756c0.707,0.229,1.134,0.001,1.156,0.079
															c0.034,0.016-0.377,0.39-1.238,0.234c-0.416-0.079-0.909-0.314-1.325-0.771c-0.422-0.431-0.71-1.237-0.466-2.016
															c0.224-0.782,0.825-1.42,1.48-1.957c0.673-0.52,1.38-1.053,2.175-1.563c1.57-1.037,3.392-2.04,5.392-2.891
															c4.003-1.719,7.925-2.43,10.75-2.634C319.289,430.404,321.039,430.641,321.032,430.733z"/>
													</g>
												</g>
											</g>
										</g>
									</g>
								</g>
							</g>
							<g>
								<g>
									<g>
										<g>
											<g>
												<g>
													<g>
														<path style="fill:#FF9A6C;" d="M322.588,438.973c0.004,0.248-5.317,0.437-11.804,1.324
															c-6.492,0.863-11.672,2.089-11.734,1.85c-0.027-0.106,1.236-0.55,3.33-1.087c2.093-0.538,5.022-1.146,8.293-1.589
															c3.27-0.439,6.256-0.628,8.416-0.664C321.25,438.77,322.586,438.863,322.588,438.973z"/>
													</g>
												</g>
											</g>
										</g>
									</g>
								</g>
							</g>
							<g>
								<g>
									<g>
										<g>
											<g>
												<g>
													<g>
														<path style="fill:#FF9A6C;" d="M294.3,444.903c-0.043-0.004-0.139-0.48-0.271-1.376
															c-0.124-0.893-0.28-2.191-0.304-3.816c-0.008-0.812,0.01-1.707,0.159-2.671c0.134-0.969,0.51-2.006,1.061-2.939
															c1.037-1.869,2.527-3.837,4.497-5.38c1.964-1.525,3.944-2.839,5.99-3.634c2.029-0.79,3.962-1.096,5.563-1.293
															c1.608-0.181,2.908-0.247,3.807-0.283c0.899-0.033,1.398-0.024,1.404,0.033c0.016,0.133-1.972,0.354-5.129,0.833
															c-1.568,0.268-3.438,0.629-5.36,1.422c-1.907,0.778-3.852,2.093-5.75,3.568c-1.9,1.495-3.294,3.3-4.357,5.116
															c-1.132,1.742-1.221,3.646-1.295,5.232C294.245,442.896,294.48,444.893,294.3,444.903z"/>
													</g>
												</g>
											</g>
										</g>
									</g>
								</g>
							</g>
							<g>
								<g>
									<g>
										<g>
											<g>
												<g>
													<g>
														<path style="fill:#FF9A6C;" d="M311.295,419.802c0.011,0.124-1.937,0.327-5.023,0.926
															c-2.964,0.692-7.745,1.283-10.158,5.628c-2.669,3.989-4.911,7.735-5.787,10.733c-0.943,2.983-0.685,4.976-0.856,4.975
															c-0.044,0.004-0.159-0.481-0.183-1.376c-0.032-0.893,0.059-2.206,0.472-3.76c0.763-3.151,2.979-7.029,5.664-11.041
															c0.686-1.009,1.438-1.973,2.335-2.757c0.893-0.798,1.964-1.305,2.955-1.678c2.01-0.739,3.888-1.055,5.456-1.305
															C309.319,419.691,311.288,419.697,311.295,419.802z"/>
													</g>
												</g>
											</g>
										</g>
									</g>
								</g>
							</g>
							<g>
								<g>
									<g>
										<g>
											<g>
												<g>
													<g>
														<path style="fill:#FF9A6C;" d="M319.169,448.03c-0.016,0.021-0.297-0.162-0.82-0.531
															c-0.593-0.405-1.361-0.93-2.318-1.584c-2.041-1.34-5.066-3.237-9.023-5.237l0.188,0.021
															c-2.376,0.596-5.056,1.269-7.957,1.997l0.25-0.362c0.069,0.657,0.081,1.304,0.002,1.984
															c-0.085,0.667-0.239,1.392-0.765,2.012c-0.275,0.303-0.687,0.502-1.033,0.574c-0.352,0.119-0.74,0.186-1.13,0.155
															c-0.778-0.051-1.533-0.4-2.094-0.956c-0.143-0.136-0.269-0.291-0.388-0.45l-0.084-0.124l-0.041-0.063l-0.02-0.031
															l-0.003-0.004c-0.107-0.032,0.926,0.258,0.487,0.137l-0.008,0.004l-0.016,0.008l-0.247,0.124
															c-0.33,0.161-0.667,0.311-1.014,0.449c-0.348,0.137-0.704,0.264-1.084,0.361c-0.19,0.047-0.385,0.091-0.595,0.112
															c-0.195,0.023-0.432,0.048-0.758-0.086c-0.48-0.289-0.672-0.659-0.873-1.006c-0.19-0.354-0.35-0.713-0.487-1.078
															c-0.281-0.731-0.501-1.471-0.695-2.244l0.496,0.29c-1.032,0.265-2.286,0.108-3.086-0.793
															c-0.361-0.42-0.672-0.948-0.68-1.581c-0.017-0.567,0.071-1.072,0.165-1.583c0.412-2.024,1.062-3.985,1.776-5.976
															l0.009-0.023l0.014-0.026c0.822-1.557,1.695-3.21,2.578-4.882c0.549-1.039,1.095-2.07,1.636-3.094
															c0.547-0.993,1.019-2.098,1.823-3.015c0.772-0.912,1.726-1.651,2.775-2.17c1.039-0.547,2.225-0.756,3.27-0.948
															c4.281-0.82,8.363-1.602,12.179-2.333l0.052-0.01l0.044,0.004c0.765,0.07,1.485,0.192,2.199,0.4
															c0.697,0.221,1.437,0.472,1.973,1.164l-0.463-0.106c1.336-0.673,2.934-0.803,4.205-0.09
															c1.276,0.705,1.935,1.951,2.326,3.139l-0.112-0.163c4.565,3.507,8.289,6.368,10.953,8.416
															c1.23,0.969,2.213,1.743,2.955,2.328c0.67,0.54,1.013,0.836,0.995,0.861c-0.018,0.024-0.398-0.224-1.103-0.718
															c-0.767-0.552-1.783-1.282-3.055-2.196c-2.704-1.993-6.485-4.781-11.118-8.196l-0.075-0.055l-0.037-0.108
															c-0.356-1.047-0.999-2.182-2.048-2.724c-1.024-0.581-2.423-0.452-3.541,0.12l-0.276,0.142l-0.187-0.248
															c-0.313-0.413-0.957-0.692-1.596-0.871c-0.646-0.184-1.353-0.299-2.047-0.356l0.095-0.006
															c-3.812,0.752-7.889,1.556-12.166,2.4c-1.091,0.207-2.111,0.387-3.06,0.888c-0.949,0.473-1.81,1.144-2.507,1.97
															c-0.711,0.802-1.157,1.84-1.72,2.87c-0.541,1.024-1.086,2.055-1.634,3.095c-0.884,1.672-1.758,3.324-2.581,4.88
															l0.022-0.048c-0.702,1.948-1.355,3.914-1.752,5.84c-0.092,0.477-0.17,0.967-0.156,1.397
															c-0.015,0.374,0.204,0.759,0.47,1.077c0.519,0.625,1.481,0.761,2.265,0.57l0.401-0.098l0.096,0.388
															c0.18,0.728,0.393,1.461,0.653,2.147c0.246,0.65,0.6,1.436,0.979,1.679c0.019,0.008,0.161,0.04,0.331,0.01
															c0.157-0.014,0.324-0.049,0.489-0.09c0.332-0.082,0.665-0.197,0.992-0.324c0.327-0.128,0.65-0.269,0.965-0.419
															l0.233-0.114l0.013-0.007l0.007-0.003c-0.437-0.123,0.599,0.165,0.493,0.137l0.002,0.003l0.016,0.025l0.032,0.049
															l0.065,0.098c0.093,0.126,0.191,0.249,0.304,0.357c0.438,0.443,1.029,0.717,1.624,0.761
															c0.299,0.027,0.592-0.022,0.884-0.119c0.319-0.07,0.526-0.178,0.713-0.366c0.707-0.86,0.706-2.299,0.622-3.439
															l-0.022-0.298l0.272-0.064c2.912-0.689,5.6-1.325,7.984-1.889l0.102-0.024l0.086,0.045
															c3.964,2.086,6.946,4.059,8.947,5.482c0.996,0.719,1.746,1.299,2.241,1.707
															C318.936,447.786,319.185,448.01,319.169,448.03z"/>
													</g>
												</g>
											</g>
										</g>
									</g>
								</g>
							</g>
						</g>
					</g>
				</g>
				<g>
					<g>
						<g>
							<g>
								<path style="fill:#455A64;" d="M200.406,450.091L172.1,375.751c-1.065-2.798,1.001-5.795,3.995-5.795h90.899
									c1.659,0,3.168,0.96,3.871,2.462l27.222,70.909l57.101,0.97c2.361,0,4.274,1.914,4.274,4.275v0
									c0,2.361-1.914,4.274-4.274,4.274H204.401C202.627,452.845,201.037,451.749,200.406,450.091z"/>
							</g>
						</g>
					</g>
					<g>
						<g>
							<g>
								<g>
									<g>
										<g>
											<g>
												<path style="fill:#FFFFFF;" d="M238.884,411.4c0,3.294-2.67,5.965-5.964,5.965c-3.294,0-5.964-2.67-5.964-5.965
													c0-3.294,2.67-5.964,5.964-5.964C236.214,405.436,238.884,408.106,238.884,411.4z"/>
											</g>
										</g>
									</g>
								</g>
							</g>
						</g>
					</g>
				</g>
				<g>
					<g>
						<g>
							<g>
								<g>
									<path style="fill:#263238;" d="M328.451,318.924c0.129,0.072-1.085,2.345-2.788,6.129
										c-1.707,3.781-3.82,9.117-5.526,15.208c-1.694,6.096-2.648,11.757-3.145,15.875c-0.501,4.119-0.64,6.692-0.786,6.686
										c-0.062-0.002-0.091-0.647-0.089-1.815c-0.007-1.168,0.069-2.857,0.241-4.938c0.337-4.161,1.2-9.897,2.911-16.052
										c1.722-6.149,3.952-11.503,5.818-15.238c0.931-1.869,1.739-3.354,2.35-4.35
										C328.038,319.431,328.396,318.894,328.451,318.924z"/>
								</g>
							</g>
						</g>
					</g>
				</g>
				<g>
					<g>
						<g>
							<g>
								<g>
									<path style="fill:#263238;" d="M455.753,364.111c0.002,0.026-0.315,0.075-0.925,0.144c-0.693,0.068-1.58,0.155-2.682,0.264
										c-2.44,0.204-5.823,0.487-10.011,0.838c-8.629,0.65-20.561,1.549-34.235,2.579l-0.441,0.033l-0.028-0.441
										c-0.287-4.546-0.59-9.347-0.901-14.283c-0.486-8.595-0.9-16.785-1.033-24.253c-0.39-7.506,1.449-14.358,4.392-19.23
										c2.913-4.947,6.775-7.821,9.596-9.224c1.437-0.677,2.585-1.13,3.4-1.322c0.803-0.227,1.226-0.331,1.234-0.301
										c0.041,0.123-1.698,0.475-4.47,1.933c-2.728,1.477-6.432,4.36-9.209,9.234c-2.808,4.825-4.539,11.473-4.112,18.893
										c0.177,7.442,0.617,15.628,1.102,24.216c0.303,4.933,0.598,9.731,0.877,14.275l-0.469-0.408
										c13.683-0.905,25.623-1.695,34.257-2.266c4.197-0.242,7.585-0.438,10.03-0.579c1.107-0.048,1.997-0.087,2.693-0.116
										C455.431,364.081,455.751,364.084,455.753,364.111z"/>
								</g>
							</g>
						</g>
					</g>
				</g>
				<g>
					<g>
						<g>
							<g>
								<g>
									<path style="fill:#263238;" d="M371.772,393.306c-0.025,0.057-0.554-0.14-1.497-0.55c-0.476-0.196-1.048-0.46-1.673-0.837
										c-0.63-0.368-1.378-0.746-2.116-1.299c-1.541-1.012-3.228-2.435-4.931-4.184c-1.662-1.786-3.314-3.92-4.725-6.363
										c-1.378-2.463-2.368-4.974-3.053-7.316c-0.633-2.358-0.993-4.535-1.074-6.377c-0.098-0.917-0.04-1.753-0.034-2.482
										c-0.005-0.731,0.061-1.357,0.136-1.866c0.13-1.019,0.231-1.575,0.293-1.568c0.178,0.016-0.114,2.27,0.241,5.864
										c0.16,1.797,0.577,3.911,1.237,6.197c0.712,2.271,1.698,4.704,3.039,7.102c1.375,2.379,2.962,4.47,4.548,6.242
										c1.627,1.735,3.23,3.175,4.693,4.231C369.763,392.243,371.85,393.145,371.772,393.306z"/>
								</g>
							</g>
						</g>
					</g>
				</g>
			</g>
		</g>
	</g>
</g>
</svg>
