<svg width="43" height="28" viewBox="0 0 43 28" fill="none" xmlns="http://www.w3.org/2000/svg">
<path d="M20.272 4.004V12.5H18.304V4.004H20.272ZM27.8302 4.004V12.5H25.9702L24.1342 8.696L23.6422 7.376L23.5582 7.4L23.8462 8.888V12.5H21.8782V4.004H23.7622L25.5262 7.784L26.0782 9.26L26.1502 9.224L25.8742 7.676V4.004H27.8302ZM29.4485 4.004H34.4525L34.2485 5.492H31.4165V7.484H33.9005L33.6965 8.948H31.4165V12.5H29.4485V4.004ZM38.2819 5.396C37.8339 5.396 37.5379 5.616 37.3939 6.056C37.2499 6.488 37.1779 7.228 37.1779 8.276C37.1779 9.316 37.2579 10.048 37.4179 10.472C37.5779 10.896 37.9099 11.108 38.4139 11.108C38.9259 11.108 39.2539 10.892 39.3979 10.46C39.5419 10.028 39.6139 9.26 39.6139 8.156C39.6139 6.94 39.5019 6.172 39.2779 5.852C39.0619 5.548 38.7299 5.396 38.2819 5.396ZM38.5099 3.86C40.6539 3.86 41.7259 5.272 41.7259 8.096C41.7259 9.536 41.4379 10.656 40.8619 11.456C40.2859 12.248 39.4259 12.644 38.2819 12.644C36.1379 12.644 35.0659 11.236 35.0659 8.42C35.0659 6.98 35.3539 5.86 35.9299 5.06C36.5059 4.26 37.3659 3.86 38.5099 3.86Z" fill="#DD0505"/>
<path d="M17.5 13.7H42.2059V14.3H17.5V13.7Z" fill="#DD0505"/>
<path d="M7.68 16.6L8.124 25H6.996L6.708 19.072L6.792 17.632H6.72L5.1 24.52L3.72 24.64L1.86 17.632H1.776L1.92 19.048L1.716 25H0.732L1.056 16.6H2.736L4.176 22.24L4.428 23.56H4.488L4.704 22.276L6 16.6H7.68ZM12.5328 20.608C12.5328 19.88 12.2008 19.516 11.5368 19.516C11.1128 19.516 10.5408 19.628 9.82078 19.852L9.43678 19.096C10.1248 18.736 10.8688 18.556 11.6688 18.556C12.6368 18.556 13.2288 18.844 13.4448 19.42C13.5568 19.716 13.6128 20.108 13.6128 20.596V23.152C13.6128 23.728 13.7768 24.184 14.1048 24.52L13.4688 25.144C13.3248 25.056 13.1768 24.928 13.0248 24.76C12.8808 24.584 12.7808 24.412 12.7248 24.244H12.6888C12.2488 24.844 11.6408 25.144 10.8648 25.144C9.72078 25.144 9.14878 24.548 9.14878 23.356C9.14878 22.3 9.89278 21.664 11.3808 21.448L12.5328 21.28V20.608ZM10.3008 23.488C10.3008 23.952 10.5848 24.184 11.1528 24.184C11.7288 24.184 12.1888 23.984 12.5328 23.584V22.12C11.5248 22.256 10.9048 22.416 10.6728 22.6C10.4248 22.8 10.3008 23.096 10.3008 23.488ZM18.2501 18.556C18.8421 18.556 19.3141 18.728 19.6661 19.072C20.0181 19.408 20.1941 19.944 20.1941 20.68V25H19.1141V20.752C19.1141 19.928 18.7021 19.516 17.8781 19.516C17.6381 19.516 17.4021 19.576 17.1701 19.696C16.9381 19.808 16.7541 19.94 16.6181 20.092V25H15.5381V20.428L15.4421 18.76L16.3181 18.64L16.4741 19.348H16.5221C16.6661 19.164 16.8821 18.988 17.1701 18.82C17.4661 18.644 17.8261 18.556 18.2501 18.556ZM24.8258 20.608C24.8258 19.88 24.4938 19.516 23.8298 19.516C23.4058 19.516 22.8338 19.628 22.1138 19.852L21.7298 19.096C22.4178 18.736 23.1618 18.556 23.9618 18.556C24.9298 18.556 25.5218 18.844 25.7378 19.42C25.8498 19.716 25.9058 20.108 25.9058 20.596V23.152C25.9058 23.728 26.0698 24.184 26.3978 24.52L25.7618 25.144C25.6178 25.056 25.4698 24.928 25.3178 24.76C25.1738 24.584 25.0738 24.412 25.0178 24.244H24.9818C24.5418 24.844 23.9338 25.144 23.1578 25.144C22.0138 25.144 21.4418 24.548 21.4418 23.356C21.4418 22.3 22.1858 21.664 23.6738 21.448L24.8258 21.28V20.608ZM22.5938 23.488C22.5938 23.952 22.8778 24.184 23.4458 24.184C24.0218 24.184 24.4818 23.984 24.8258 23.584V22.12C23.8178 22.256 23.1978 22.416 22.9658 22.6C22.7178 22.8 22.5938 23.096 22.5938 23.488ZM29.7991 18.556C29.9271 18.556 30.0351 18.56 30.1231 18.568C30.2191 18.576 30.4551 18.588 30.8311 18.604C31.9431 18.652 32.5511 18.676 32.6551 18.676L32.5231 19.372L31.6951 19.456C31.8951 19.792 31.9951 20.192 31.9951 20.656C31.9951 21.344 31.7871 21.888 31.3711 22.288C30.9551 22.688 30.3631 22.888 29.5951 22.888C29.4751 22.888 29.3191 22.88 29.1271 22.864C28.9671 22.992 28.8631 23.084 28.8151 23.14C28.7671 23.196 28.7431 23.26 28.7431 23.332C28.7431 23.564 28.9951 23.704 29.4991 23.752L30.3991 23.836C31.0391 23.876 31.5391 24.008 31.8991 24.232C32.2671 24.448 32.4511 24.808 32.4511 25.312C32.4511 25.824 32.3031 26.232 32.0071 26.536C31.4551 27.112 30.6351 27.4 29.5471 27.4C27.9071 27.4 27.0871 26.904 27.0871 25.912C27.0871 25.52 27.3351 25.112 27.8311 24.688C27.8871 24.64 27.9271 24.608 27.9511 24.592C27.9831 24.568 28.0231 24.54 28.0711 24.508C28.1191 24.468 28.1471 24.448 28.1551 24.448C27.8431 24.264 27.6871 24 27.6871 23.656C27.6871 23.448 27.7431 23.276 27.8551 23.14C27.9671 23.004 28.1551 22.844 28.4191 22.66C27.7391 22.332 27.3991 21.72 27.3991 20.824C27.3991 20.12 27.6071 19.568 28.0231 19.168C28.4391 18.76 29.0311 18.556 29.7991 18.556ZM28.1431 25.66C28.1431 25.964 28.2871 26.188 28.5751 26.332C28.8711 26.476 29.2511 26.548 29.7151 26.548C30.1871 26.548 30.5871 26.476 30.9151 26.332C31.2511 26.188 31.4191 25.96 31.4191 25.648C31.4191 25.4 31.3431 25.228 31.1911 25.132C31.1111 25.076 31.0351 25.032 30.9631 25C30.8991 24.96 30.7871 24.928 30.6271 24.904C30.3391 24.864 30.0351 24.832 29.7151 24.808C29.4031 24.784 29.1151 24.744 28.8511 24.688C28.5311 24.936 28.3311 25.124 28.2511 25.252C28.1791 25.388 28.1431 25.524 28.1431 25.66ZM29.6311 19.408C29.2231 19.408 28.9311 19.516 28.7551 19.732C28.5871 19.948 28.5031 20.28 28.5031 20.728C28.5031 21.616 28.9231 22.06 29.7631 22.06C30.1791 22.06 30.4711 21.948 30.6391 21.724C30.8071 21.5 30.8911 21.16 30.8911 20.704C30.8911 19.84 30.4711 19.408 29.6311 19.408ZM35.9819 18.556C36.6699 18.556 37.1779 18.764 37.5059 19.18C37.7779 19.516 37.9459 20.08 38.0099 20.872C38.0339 21.184 38.0459 21.572 38.0459 22.036L37.5539 22.108H34.4459C34.4459 23.116 34.7139 23.752 35.2499 24.016C35.4739 24.128 35.7819 24.184 36.1739 24.184C36.5659 24.184 37.0179 24.056 37.5299 23.8L37.8659 24.544C37.2019 24.944 36.5339 25.144 35.8619 25.144C34.1499 25.144 33.2939 24.064 33.2939 21.904C33.2939 20.88 33.5179 20.068 33.9659 19.468C34.4219 18.86 35.0939 18.556 35.9819 18.556ZM36.8939 21.256C36.8939 20.616 36.8299 20.168 36.7019 19.912C36.5739 19.648 36.2779 19.516 35.8139 19.516C35.3579 19.516 35.0339 19.672 34.8419 19.984C34.6499 20.288 34.5299 20.712 34.4819 21.256H36.8939ZM42.0473 18.556C42.2553 18.556 42.4113 18.576 42.5153 18.616C42.6273 18.648 42.7193 18.676 42.7913 18.7C42.8633 18.716 42.9073 18.728 42.9233 18.736L42.7313 19.816C42.4913 19.736 42.2033 19.696 41.8673 19.696C41.5393 19.696 41.2393 19.84 40.9673 20.128C40.7033 20.408 40.5713 20.748 40.5713 21.148V25H39.4913V20.428L39.3953 18.76L40.2713 18.64L40.4033 19.852H40.4513C40.5873 19.46 40.7913 19.148 41.0633 18.916C41.3433 18.676 41.6713 18.556 42.0473 18.556Z" fill="#DD0505"/>
</svg>
